<svg width="756" height="756" viewBox="0 0 756 756" fill="none" xmlns="http://www.w3.org/2000/svg">
<path d="M432.065 315.211L432.065 315.211C421.655 322.897 407.126 315.709 406.519 302.617L393.146 15.2489C392.23 -4.4163 363.879 -4.4163 362.962 15.2489L349.589 302.617L349.589 302.618C348.939 315.706 334.412 322.899 324.043 315.21L96.3217 146.643C96.3214 146.643 96.3211 146.643 96.3208 146.642C92.4021 143.755 88.3847 143.032 84.7875 143.741C81.1789 144.453 77.9561 146.615 75.6653 149.561C71.0854 155.45 70.2894 164.367 77.5029 170.883L432.065 315.211ZM432.065 315.211L659.745 146.642C663.664 143.744 667.682 143.015 671.279 143.723C674.887 144.433 678.11 146.596 680.401 149.544C684.981 155.439 685.777 164.367 678.563 170.883C678.563 170.883 678.563 170.883 678.563 170.883L467.516 360.854M432.065 315.211L467.516 360.854M467.516 360.854C457.916 369.477 461.48 385.593 473.831 389.142L473.831 389.142L744.407 466.519C753.666 469.166 756.722 477.545 755.077 484.895C754.254 488.57 752.258 491.954 749.301 494.2C746.353 496.439 742.423 497.567 737.674 496.7L461.17 446.067M467.516 360.854L461.17 446.067M461.17 446.067C461.17 446.067 461.169 446.067 461.169 446.067C448.537 443.742 438.525 456.7 443.48 468.736L443.48 468.737L553.199 733.815C556.963 742.897 552.463 750.575 545.852 753.836C542.543 755.468 538.725 755.98 535.173 755.01C531.631 754.043 528.316 751.593 526.011 747.227L525.569 747.461M461.17 446.067L525.569 747.461M525.569 747.461L526.011 747.227L392.174 494.083M525.569 747.461L392.174 494.083M392.174 494.083C386.099 482.571 369.925 482.574 363.808 494.082L363.808 494.083L229.971 747.227C227.667 751.581 224.352 754.024 220.81 754.986C217.257 755.951 213.439 755.436 210.13 753.804C203.518 750.542 199.02 742.875 202.783 733.816L202.783 733.815L312.502 468.738M392.174 494.083L312.502 468.738M312.502 468.738C317.502 456.698 307.443 443.743 294.813 446.067C294.813 446.067 294.813 446.067 294.812 446.067L18.3078 496.7C13.5587 497.567 9.63191 496.439 6.68712 494.2C3.73312 491.955 1.74098 488.57 0.920892 484.895C-0.71926 477.544 2.33733 469.166 11.5754 466.519C11.5754 466.519 11.5755 466.519 11.5756 466.519L282.151 389.142L282.151 389.142M312.502 468.738L282.151 389.142M282.151 389.142C294.502 385.593 298.066 369.478 288.467 360.855L282.151 389.142ZM288.466 360.854L77.5034 170.883L288.466 360.854Z" stroke="#E76387"/>
</svg>
