<svg width="90" height="90" viewBox="0 0 90 90" fill="none" xmlns="http://www.w3.org/2000/svg">
<path d="M51.3798 9.85853C48.3852 5.23112 41.6148 5.23111 38.6202 9.85853V9.85853C36.6659 12.8785 32.8619 14.1145 29.5057 12.82V12.82C24.3632 10.8365 18.8857 14.8161 19.183 20.3199V20.3199C19.377 23.9118 17.026 27.1477 13.5499 28.0731V28.0731C8.22364 29.4912 6.13144 35.9303 9.60701 40.2082V40.2082C11.8752 43.0001 11.8752 46.9999 9.60701 49.7918V49.7918C6.13144 54.0697 8.22364 60.5088 13.5499 61.9269V61.9269C17.026 62.8523 19.377 66.0882 19.183 69.6801V69.6801C18.8857 75.1839 24.3632 79.1635 29.5057 77.18V77.18C32.8619 75.8855 36.6659 77.1215 38.6202 80.1415V80.1415C41.6148 84.7689 48.3852 84.7689 51.3798 80.1415V80.1415C53.3341 77.1215 57.1381 75.8855 60.4943 77.18V77.18C65.6368 79.1635 71.1143 75.1839 70.817 69.6801V69.6801C70.623 66.0882 72.974 62.8523 76.4501 61.9269V61.9269C81.7764 60.5088 83.8686 54.0697 80.393 49.7918V49.7918C78.1248 46.9999 78.1248 43.0001 80.393 40.2082V40.2082C83.8686 35.9303 81.7764 29.4912 76.4501 28.0731V28.0731C72.974 27.1477 70.623 23.9118 70.817 20.3199V20.3199C71.1143 14.8161 65.6368 10.8365 60.4943 12.82V12.82C57.1381 14.1145 53.3341 12.8785 51.3798 9.85853V9.85853Z" fill="url(#paint0_linear_604_53)"/>
<path fill-rule="evenodd" clip-rule="evenodd" d="M60.0068 37.4812C60.3818 37.8562 60.5693 38.3116 60.5693 38.8473C60.5693 39.383 60.3818 39.8384 60.0068 40.2134L45.4622 54.758L42.73 57.4901C42.355 57.8651 41.8997 58.0526 41.3639 58.0526C40.8282 58.0526 40.3729 57.8651 39.9979 57.4901L37.2657 54.758L29.9934 47.4856C29.6184 47.1106 29.4309 46.6553 29.4309 46.1196C29.4309 45.5839 29.6184 45.1285 29.9934 44.7535L32.7256 42.0214C33.1006 41.6464 33.5559 41.4589 34.0916 41.4589C34.6273 41.4589 35.0827 41.6464 35.4577 42.0214L41.3639 47.9477L54.5425 34.749C54.9175 34.374 55.3728 34.1865 55.9085 34.1865C56.4442 34.1865 56.8996 34.374 57.2746 34.749L60.0068 37.4812Z" fill="white"/>
<defs>
<linearGradient id="paint0_linear_604_53" x1="45" y1="0" x2="45" y2="90" gradientUnits="userSpaceOnUse">
<stop stop-color="#FFA693"/>
<stop offset="1" stop-color="#FD3E85"/>
</linearGradient>
</defs>
</svg>
