<svg width="90" height="90" viewBox="0 0 90 90" fill="none" xmlns="http://www.w3.org/2000/svg">
<path d="M51.3798 9.85853C48.3852 5.23112 41.6148 5.23111 38.6202 9.85853V9.85853C36.6659 12.8785 32.8619 14.1145 29.5057 12.82V12.82C24.3632 10.8365 18.8857 14.8161 19.183 20.3199V20.3199C19.377 23.9118 17.026 27.1477 13.5499 28.0731V28.0731C8.22364 29.4912 6.13144 35.9303 9.60701 40.2082V40.2082C11.8752 43.0001 11.8752 46.9999 9.60701 49.7918V49.7918C6.13144 54.0697 8.22364 60.5088 13.5499 61.9269V61.9269C17.026 62.8523 19.377 66.0882 19.183 69.6801V69.6801C18.8857 75.1839 24.3632 79.1635 29.5057 77.18V77.18C32.8619 75.8855 36.6659 77.1215 38.6202 80.1415V80.1415C41.6148 84.7689 48.3852 84.7689 51.3798 80.1415V80.1415C53.3341 77.1215 57.1381 75.8855 60.4943 77.18V77.18C65.6368 79.1635 71.1143 75.1839 70.817 69.6801V69.6801C70.623 66.0882 72.974 62.8523 76.4501 61.9269V61.9269C81.7764 60.5088 83.8686 54.0697 80.393 49.7918V49.7918C78.1248 46.9999 78.1248 43.0001 80.393 40.2082V40.2082C83.8686 35.9303 81.7764 29.4912 76.4501 28.0731V28.0731C72.974 27.1477 70.623 23.9118 70.817 20.3199V20.3199C71.1143 14.8161 65.6368 10.8365 60.4943 12.82V12.82C57.1381 14.1145 53.3341 12.8785 51.3798 9.85853V9.85853Z" fill="url(#paint0_linear_604_52)"/>
<path fill-rule="evenodd" clip-rule="evenodd" d="M57.3135 51.4687C57.6885 51.8437 57.876 52.299 57.876 52.8348C57.876 53.3705 57.6885 53.8258 57.3135 54.2008L54.5813 56.933C54.2063 57.308 53.7509 57.4955 53.2152 57.4955C52.6795 57.4955 52.2242 57.308 51.8492 56.933L45.9429 51.0267L40.0367 56.933C39.6617 57.308 39.2063 57.4955 38.6706 57.4955C38.1349 57.4955 37.6795 57.308 37.3045 56.933L34.5724 54.2008C34.1974 53.8258 34.0099 53.3705 34.0099 52.8348C34.0099 52.299 34.1974 51.8437 34.5724 51.4687L40.4786 45.5624L34.5724 39.6562C34.1974 39.2812 34.0099 38.8258 34.0099 38.2901C34.0099 37.7544 34.1974 37.299 34.5724 36.924L37.3045 34.1919C37.6795 33.8169 38.1349 33.6294 38.6706 33.6294C39.2063 33.6294 39.6617 33.8169 40.0367 34.1919L45.9429 40.0981L51.8492 34.1919C52.2242 33.8169 52.6795 33.6294 53.2152 33.6294C53.751 33.6294 54.2063 33.8169 54.5813 34.1919L57.3135 36.924C57.6885 37.299 57.876 37.7544 57.876 38.2901C57.876 38.8258 57.6885 39.2812 57.3135 39.6562L51.4072 45.5624L57.3135 51.4687Z" fill="white"/>
<defs>
<linearGradient id="paint0_linear_604_52" x1="45" y1="0" x2="45" y2="90" gradientUnits="userSpaceOnUse">
<stop stop-color="#FFA693"/>
<stop offset="1" stop-color="#FD3E85"/>
</linearGradient>
</defs>
</svg>
