<svg width="279" height="279" viewBox="0 0 279 279" fill="none" xmlns="http://www.w3.org/2000/svg">
<path d="M159.37 116.466L159.37 116.466C155.329 119.45 149.707 116.65 149.473 111.596L144.555 5.92323C144.237 -0.906226 134.405 -0.906226 134.087 5.92323L129.169 111.596L129.169 111.597C128.919 116.647 123.3 119.452 119.272 116.466L159.37 116.466ZM159.37 116.466L243.094 54.4794C244.467 53.4639 245.855 53.2196 247.086 53.4619C248.329 53.7063 249.45 54.4544 250.252 55.4863C251.854 57.5484 252.121 60.6395 249.614 62.9046L172.007 132.761C168.297 136.094 169.667 142.327 174.453 143.702L174.454 143.702M159.37 116.466L174.454 143.702M174.454 143.702L273.951 172.156C277.161 173.073 278.23 175.964 277.653 178.54C277.365 179.828 276.667 181.004 275.647 181.779C274.635 182.547 273.28 182.943 271.619 182.639L169.942 164.02C165.033 163.117 161.176 168.146 163.087 172.787L163.088 172.788M174.454 143.702L163.088 172.788M163.088 172.788L203.434 270.264L203.872 270.083M163.088 172.788L203.872 270.083M203.872 270.083L203.434 270.264C204.745 273.427 203.19 276.085 200.885 277.222C199.729 277.792 198.404 277.966 197.181 277.632C195.968 277.301 194.817 276.46 194.008 274.928L194.008 274.927M203.872 270.083L194.008 274.927M194.008 274.927L144.793 181.84L194.008 274.927ZM133.803 181.84L133.803 181.839C136.171 177.384 142.439 177.381 144.793 181.84H133.803ZM133.803 181.84L84.5877 274.927C83.7789 276.456 82.6288 277.294 81.4155 277.623C80.1921 277.955 78.867 277.78 77.7111 277.21C75.4049 276.072 73.8515 273.418 75.1613 270.265L75.1615 270.264M133.803 181.84L75.1615 270.264M75.1615 270.264L115.508 172.789C117.436 168.144 113.56 163.117 108.654 164.02L6.9766 182.639C5.31506 182.943 3.96162 182.547 2.95143 181.779C1.93204 181.004 1.23573 179.829 0.948271 178.54C0.373355 175.964 1.44243 173.073 4.64479 172.156L104.142 143.702L104.142 143.702M75.1615 270.264L104.142 143.702M104.142 143.702C108.929 142.327 110.299 136.094 106.589 132.761M104.142 143.702L106.589 132.761M106.589 132.761L106.589 132.761M106.589 132.761L106.589 132.761M106.589 132.761L29.0129 62.9046L106.589 132.761ZM28.3746 55.4924C26.7728 57.5522 26.5053 60.6389 29.0124 62.9041L28.3746 55.4924ZM28.3746 55.4924C29.1765 54.4615 30.2978 53.7137 31.5407 53.4685M28.3746 55.4924L31.5407 53.4685M31.5407 53.4685C32.7723 53.2255 34.1598 53.4681 35.5325 54.4793L31.5407 53.4685ZM35.5334 54.4799L119.271 116.466L35.5334 54.4799Z" stroke="#E76387"/>
</svg>
