<svg width="56" height="56" viewBox="0 0 56 56" fill="none" xmlns="http://www.w3.org/2000/svg">
<path d="M29.1589 1.12782L30.1495 22.4143C30.1932 23.356 31.2367 23.8701 31.9828 23.3192L48.848 10.8326C50.0411 9.95023 51.3915 11.6894 50.2887 12.6855L34.6555 26.7575C33.9656 27.3773 34.2225 28.5351 35.1088 28.7897L55.1514 34.5213C56.5688 34.9265 56.0828 37.0933 54.6359 36.829L34.154 33.0784C33.2491 32.9119 32.5279 33.8407 32.8846 34.7071L41.0119 54.3425C41.5867 55.7294 39.6319 56.6951 38.931 55.3675L29.0172 36.616C28.5811 35.7897 27.4207 35.7897 26.9815 36.616L17.0676 55.3675C16.3667 56.6919 14.412 55.7262 14.9867 54.3425L23.1141 34.7071C23.4739 33.8407 22.7496 32.9119 21.8447 33.0784L1.3628 36.829C-0.0841665 37.0933 -0.567009 34.9265 0.847252 34.5213L20.8899 28.7897C21.7761 28.5351 22.0331 27.3773 21.3431 26.7575L5.71617 12.6855C4.61342 11.6894 5.96382 9.95344 7.15691 10.8326L24.0252 23.3192C24.7682 23.8701 25.8118 23.356 25.8585 22.4143L26.8491 1.12782C26.9192 -0.375941 29.0888 -0.375941 29.1589 1.12782Z" fill="#E76387"/>
</svg>
