<svg width="184" height="132" viewBox="0 0 184 132" fill="none" xmlns="http://www.w3.org/2000/svg">
<path d="M7.67045 111V96.8182L40.8068 66.1364C43.625 63.4091 45.9886 60.9545 47.8977 58.7727C49.8371 56.5909 51.3068 54.4545 52.3068 52.3636C53.3068 50.2424 53.8068 47.9545 53.8068 45.5C53.8068 42.7727 53.1856 40.4242 51.9432 38.4545C50.7008 36.4545 49.0038 34.9242 46.8523 33.8636C44.7008 32.7727 42.2614 32.2273 39.5341 32.2273C36.6856 32.2273 34.2008 32.803 32.0795 33.9545C29.9583 35.1061 28.322 36.7576 27.1705 38.9091C26.0189 41.0606 25.4432 43.6212 25.4432 46.5909H6.76136C6.76136 40.5 8.14015 35.2121 10.8977 30.7273C13.6553 26.2424 17.5189 22.7727 22.4886 20.3182C27.4583 17.8636 33.1856 16.6364 39.6705 16.6364C46.3371 16.6364 52.1402 17.8182 57.0795 20.1818C62.0492 22.5151 65.9129 25.7576 68.6705 29.9091C71.428 34.0606 72.8068 38.8182 72.8068 44.1818C72.8068 47.697 72.1099 51.1667 70.7159 54.5909C69.3523 58.0152 66.9129 61.8182 63.3977 66C59.8826 70.1515 54.928 75.1364 48.5341 80.9545L34.9432 94.2727V94.9091H74.0341V111H7.67045ZM124.795 113.045C116.977 113.015 110.25 111.091 104.614 107.273C99.0076 103.455 94.6894 97.9242 91.6591 90.6818C88.6591 83.4394 87.1742 74.7273 87.2045 64.5455C87.2045 54.3939 88.7045 45.7424 91.7045 38.5909C94.7348 31.4394 99.053 26 104.659 22.2727C110.295 18.5151 117.008 16.6364 124.795 16.6364C132.583 16.6364 139.28 18.5151 144.886 22.2727C150.523 26.0303 154.856 31.4848 157.886 38.6364C160.917 45.7576 162.417 54.3939 162.386 64.5455C162.386 74.7576 160.871 83.4848 157.841 90.7273C154.841 97.9697 150.538 103.5 144.932 107.318C139.326 111.136 132.614 113.045 124.795 113.045ZM124.795 96.7273C130.129 96.7273 134.386 94.0455 137.568 88.6818C140.75 83.3182 142.326 75.2727 142.295 64.5455C142.295 57.4848 141.568 51.6061 140.114 46.9091C138.689 42.2121 136.659 38.6818 134.023 36.3182C131.417 33.9545 128.341 32.7727 124.795 32.7727C119.492 32.7727 115.25 35.4242 112.068 40.7273C108.886 46.0303 107.28 53.9697 107.25 64.5455C107.25 71.697 107.962 77.6667 109.386 82.4545C110.841 87.2121 112.886 90.7879 115.523 93.1818C118.159 95.5455 121.25 96.7273 124.795 96.7273Z" fill="#EDEDED"/>
<path d="M152.272 100.424L181.504 96.536L182.32 102.008L153.136 105.944L152.272 100.424ZM170.368 87.272L174.688 84.584C177.184 86.888 180.208 90.104 181.552 92.36L176.944 95.336C175.744 93.128 172.816 89.72 170.368 87.272ZM149.632 84.632L155.104 86.456C151.504 94.952 145.648 103.832 139.648 109.352C139.072 107.96 137.44 104.888 136.432 103.496C141.616 99.032 146.656 91.88 149.632 84.632ZM144.64 98.408L150.544 92.552L150.592 92.648V129.224H144.64V98.408ZM161.248 84.968H167.104C167.44 105.512 170.224 121.448 176.032 122.264C177.136 122.36 177.76 119.864 178.096 114.584C179.2 115.784 181.792 117.32 182.848 117.848C181.6 127.16 179.008 129.368 176.32 129.224C164.944 128.168 162.112 111.128 161.248 84.968Z" fill="#D9D9D9"/>
</svg>
