<svg width="186" height="132" viewBox="0 0 186 132" fill="none" xmlns="http://www.w3.org/2000/svg">
<path d="M42.2045 112.273C35.4167 112.273 29.3712 111.106 24.0682 108.773C18.7955 106.409 14.6288 103.167 11.5682 99.0455C8.53788 94.8939 6.97727 90.1061 6.88636 84.6818H26.7045C26.8258 86.9545 27.5682 88.9545 28.9318 90.6818C30.3258 92.3788 32.1742 93.697 34.4773 94.6364C36.7803 95.5758 39.3712 96.0455 42.25 96.0455C45.25 96.0455 47.9015 95.5152 50.2045 94.4545C52.5076 93.3939 54.3106 91.9242 55.6136 90.0455C56.9167 88.1667 57.5682 86 57.5682 83.5455C57.5682 81.0606 56.8712 78.8636 55.4773 76.9545C54.1136 75.0151 52.1439 73.5 49.5682 72.4091C47.0227 71.3182 43.9924 70.7727 40.4773 70.7727H31.7955V56.3182H40.4773C43.447 56.3182 46.0682 55.803 48.3409 54.7727C50.6439 53.7424 52.4318 52.3182 53.7045 50.5C54.9773 48.6515 55.6136 46.5 55.6136 44.0455C55.6136 41.7121 55.053 39.6667 53.9318 37.9091C52.8409 36.1212 51.2955 34.7273 49.2955 33.7273C47.3258 32.7273 45.0227 32.2273 42.3864 32.2273C39.7197 32.2273 37.2803 32.7121 35.0682 33.6818C32.8561 34.6212 31.0833 35.9697 29.75 37.7273C28.4167 39.4848 27.7045 41.5455 27.6136 43.9091H8.75C8.84091 38.5455 10.3712 33.8182 13.3409 29.7273C16.3106 25.6364 20.3106 22.4394 25.3409 20.1364C30.4015 17.803 36.1136 16.6364 42.4773 16.6364C48.9015 16.6364 54.5227 17.803 59.3409 20.1364C64.1591 22.4697 67.9015 25.6212 70.5682 29.5909C73.2652 33.5303 74.5985 37.9545 74.5682 42.8636C74.5985 48.0758 72.9773 52.4242 69.7045 55.9091C66.4621 59.3939 62.2349 61.6061 57.0227 62.5455V63.2727C63.8712 64.1515 69.0833 66.5303 72.6591 70.4091C76.2652 74.2576 78.053 79.0758 78.0227 84.8636C78.053 90.1667 76.5227 94.8788 73.4318 99C70.3712 103.121 66.1439 106.364 60.75 108.727C55.3561 111.091 49.1742 112.273 42.2045 112.273ZM128.67 113.045C120.852 113.015 114.125 111.091 108.489 107.273C102.883 103.455 98.5644 97.9242 95.5341 90.6818C92.5341 83.4394 91.0492 74.7273 91.0795 64.5455C91.0795 54.3939 92.5795 45.7424 95.5795 38.5909C98.6098 31.4394 102.928 26 108.534 22.2727C114.17 18.5151 120.883 16.6364 128.67 16.6364C136.458 16.6364 143.155 18.5151 148.761 22.2727C154.398 26.0303 158.731 31.4848 161.761 38.6364C164.792 45.7576 166.292 54.3939 166.261 64.5455C166.261 74.7576 164.746 83.4848 161.716 90.7273C158.716 97.9697 154.413 103.5 148.807 107.318C143.201 111.136 136.489 113.045 128.67 113.045ZM128.67 96.7273C134.004 96.7273 138.261 94.0455 141.443 88.6818C144.625 83.3182 146.201 75.2727 146.17 64.5455C146.17 57.4848 145.443 51.6061 143.989 46.9091C142.564 42.2121 140.534 38.6818 137.898 36.3182C135.292 33.9545 132.216 32.7727 128.67 32.7727C123.367 32.7727 119.125 35.4242 115.943 40.7273C112.761 46.0303 111.155 53.9697 111.125 64.5455C111.125 71.697 111.837 77.6667 113.261 82.4545C114.716 87.2121 116.761 90.7879 119.398 93.1818C122.034 95.5455 125.125 96.7273 128.67 96.7273Z" fill="#EDEDED"/>
<path d="M154.272 100.424L183.504 96.536L184.32 102.008L155.136 105.944L154.272 100.424ZM172.368 87.272L176.688 84.584C179.184 86.888 182.208 90.104 183.552 92.36L178.944 95.336C177.744 93.128 174.816 89.72 172.368 87.272ZM151.632 84.632L157.104 86.456C153.504 94.952 147.648 103.832 141.648 109.352C141.072 107.96 139.44 104.888 138.432 103.496C143.616 99.032 148.656 91.88 151.632 84.632ZM146.64 98.408L152.544 92.552L152.592 92.648V129.224H146.64V98.408ZM163.248 84.968H169.104C169.44 105.512 172.224 121.448 178.032 122.264C179.136 122.36 179.76 119.864 180.096 114.584C181.2 115.784 183.792 117.32 184.848 117.848C183.6 127.16 181.008 129.368 178.32 129.224C166.944 128.168 164.112 111.128 163.248 84.968Z" fill="#D9D9D9"/>
</svg>
