<svg width="187" height="132" viewBox="0 0 187 132" fill="none" xmlns="http://www.w3.org/2000/svg">
<path d="M6.19886 94.6364V79.1364L45.0625 17.9091H58.4261V39.3636H50.517L26.017 78.1364V78.8636H81.2443V94.6364H6.19886ZM50.8807 111V89.9091L51.2443 83.0455V17.9091H69.6989V111H50.8807ZM130.858 113.045C123.04 113.015 116.313 111.091 110.676 107.273C105.07 103.455 100.752 97.9242 97.7216 90.6818C94.7216 83.4394 93.2367 74.7273 93.267 64.5455C93.267 54.3939 94.767 45.7424 97.767 38.5909C100.797 31.4394 105.116 26 110.722 22.2727C116.358 18.5151 123.07 16.6364 130.858 16.6364C138.646 16.6364 145.343 18.5151 150.949 22.2727C156.585 26.0303 160.919 31.4848 163.949 38.6364C166.979 45.7576 168.479 54.3939 168.449 64.5455C168.449 74.7576 166.934 83.4848 163.903 90.7273C160.903 97.9697 156.6 103.5 150.994 107.318C145.388 111.136 138.676 113.045 130.858 113.045ZM130.858 96.7273C136.191 96.7273 140.449 94.0455 143.631 88.6818C146.813 83.3182 148.388 75.2727 148.358 64.5455C148.358 57.4848 147.631 51.6061 146.176 46.9091C144.752 42.2121 142.722 38.6818 140.085 36.3182C137.479 33.9545 134.403 32.7727 130.858 32.7727C125.555 32.7727 121.313 35.4242 118.131 40.7273C114.949 46.0303 113.343 53.9697 113.312 64.5455C113.312 71.697 114.025 77.6667 115.449 82.4545C116.903 87.2121 118.949 90.7879 121.585 93.1818C124.222 95.5455 127.312 96.7273 130.858 96.7273Z" fill="#EDEDED"/>
<path d="M155.272 100.424L184.504 96.536L185.32 102.008L156.136 105.944L155.272 100.424ZM173.368 87.272L177.688 84.584C180.184 86.888 183.208 90.104 184.552 92.36L179.944 95.336C178.744 93.128 175.816 89.72 173.368 87.272ZM152.632 84.632L158.104 86.456C154.504 94.952 148.648 103.832 142.648 109.352C142.072 107.96 140.44 104.888 139.432 103.496C144.616 99.032 149.656 91.88 152.632 84.632ZM147.64 98.408L153.544 92.552L153.592 92.648V129.224H147.64V98.408ZM164.248 84.968H170.104C170.44 105.512 173.224 121.448 179.032 122.264C180.136 122.36 180.76 119.864 181.096 114.584C182.2 115.784 184.792 117.32 185.848 117.848C184.6 127.16 182.008 129.368 179.32 129.224C167.944 128.168 165.112 111.128 164.248 84.968Z" fill="#D9D9D9"/>
</svg>
