<svg width="136" height="149" viewBox="0 0 136 149" fill="none" xmlns="http://www.w3.org/2000/svg">
<g filter="url(#filter0_i_415_59)">
<mask id="mask0_415_59" style="mask-type:luminance" maskUnits="userSpaceOnUse" x="0" y="0" width="136" height="149">
<path d="M0.981934 0H135.173V148.568H0.981934V0Z" fill="white"/>
</mask>
<g mask="url(#mask0_415_59)">
<path d="M125.24 87.6585C121.321 78.7446 123.454 63.7217 127.212 55.1625C127.224 55.1418 133.003 41.9957 133.003 41.9957C135.012 37.4253 131.955 32.2238 126.997 31.7701C116.73 30.8296 105.754 30.8007 96.3077 26.1066C86.9731 21.4702 81.6354 12.3294 75.7409 4.10429C73.7775 1.36947 70.7663 0 67.7551 0C64.7439 0 61.7327 1.36535 59.7692 4.10016C54.048 12.0736 47.7616 20.2327 39.2272 25.3558C29.5872 31.1472 19.308 30.7883 8.51719 31.7701C3.55079 32.2238 0.494232 37.4253 2.50719 41.9957C2.50719 41.9957 8.28619 55.1418 8.29444 55.1625C12.0605 63.7175 14.1848 78.7405 10.2662 87.6585L2.50719 105.313C0.494232 109.888 3.55079 115.085 8.51719 115.535L19.4771 116.537C19.4771 116.537 23.1895 116.875 23.1936 116.875C36.3315 118.076 47.1099 125.546 54.6172 136.023L59.7692 143.205C61.7286 145.939 64.7439 147.313 67.7551 147.313C70.7663 147.313 73.7775 145.939 75.7409 143.205L80.8888 136.023C88.4003 125.546 99.1787 118.076 112.317 116.875L116.033 116.537L126.993 115.535C131.955 115.081 135.012 109.884 133.003 105.313L125.24 87.6585ZM115.097 75.6509H107.008C103.225 75.6509 99.4715 76.4594 96.0767 78.1423C91.065 80.6255 86.3667 83.9544 82.1923 88.137C78.022 92.3197 74.7014 97.0303 72.2224 102.059C70.5476 105.458 69.7392 109.224 69.7392 113.014V121.124C69.7392 122.225 68.8482 123.125 67.7468 123.125C66.6455 123.125 65.7545 122.229 65.7545 121.124V113.031C65.7545 109.03 64.814 105.082 63.0032 101.51C60.5571 96.688 57.3273 92.1671 53.3055 88.137C49.2878 84.107 44.7752 80.8648 39.9697 78.4146C36.4099 76.5996 32.4706 75.655 28.4776 75.655H20.4093C19.3121 75.655 18.417 74.7599 18.417 73.6586C18.417 72.5531 19.308 71.658 20.4093 71.658H28.4983C32.2808 71.658 36.0386 70.8536 39.4293 69.1707C44.4411 66.6875 49.1393 63.3587 53.3096 59.176C57.3314 55.146 60.5653 50.6251 63.0073 45.803C64.8181 42.235 65.7627 38.2874 65.7627 34.2822V26.1849C65.7627 25.0836 66.6537 24.1885 67.7551 24.1885C68.8564 24.1885 69.7474 25.0795 69.7474 26.1849V34.278C69.7474 38.2833 70.6879 42.2309 72.4987 45.7989C74.9448 50.6209 78.1787 55.1418 82.1964 59.1719C86.2182 63.2019 90.7267 66.4441 95.5322 68.8943C99.0962 70.7093 103.031 71.658 107.024 71.658H115.097C116.198 71.658 117.089 72.549 117.089 73.6544C117.089 74.7599 116.198 75.6509 115.097 75.6509Z" fill="url(#paint0_linear_415_59)"/>
</g>
</g>
<defs>
<filter id="filter0_i_415_59" x="1.88037" y="0" width="131.748" height="151.313" filterUnits="userSpaceOnUse" color-interpolation-filters="sRGB">
<feFlood flood-opacity="0" result="BackgroundImageFix"/>
<feBlend mode="normal" in="SourceGraphic" in2="BackgroundImageFix" result="shape"/>
<feColorMatrix in="SourceAlpha" type="matrix" values="0 0 0 0 0 0 0 0 0 0 0 0 0 0 0 0 0 0 127 0" result="hardAlpha"/>
<feOffset dy="4"/>
<feGaussianBlur stdDeviation="2"/>
<feComposite in2="hardAlpha" operator="arithmetic" k2="-1" k3="1"/>
<feColorMatrix type="matrix" values="0 0 0 0 1 0 0 0 0 1 0 0 0 0 1 0 0 0 0.5 0"/>
<feBlend mode="normal" in2="shape" result="effect1_innerShadow_415_59"/>
</filter>
<linearGradient id="paint0_linear_415_59" x1="67.7541" y1="0" x2="67.7541" y2="147.313" gradientUnits="userSpaceOnUse">
<stop stop-color="#E76387"/>
<stop offset="1" stop-color="#FF8A7B"/>
</linearGradient>
</defs>
</svg>
