<svg width="236" height="73" viewBox="0 0 236 73" fill="none" xmlns="http://www.w3.org/2000/svg">
<path d="M234.928 42.0368C234.928 45.9833 231.843 49.8763 225.922 53.5156C220.03 57.1377 211.47 60.4177 200.849 63.1792C179.614 68.7004 150.25 72.1211 117.797 72.1211C85.3433 72.1211 55.9797 68.7004 34.7443 63.1792C24.1229 60.4177 15.5633 57.1377 9.67095 53.5156C3.75043 49.8763 0.665039 45.9833 0.665039 42.0368C0.665039 38.0904 3.75043 34.1974 9.67095 30.5581C15.5633 26.936 24.1229 23.656 34.7443 20.8945C55.9797 15.3733 85.3433 11.9526 117.797 11.9526C150.25 11.9526 179.614 15.3733 200.849 20.8945C211.47 23.656 220.03 26.936 225.922 30.5581C231.843 34.1974 234.928 38.0904 234.928 42.0368Z" fill="#E76387" stroke="#E76387"/>
<path d="M234.928 30.7442C234.928 34.6907 231.843 38.5836 225.922 42.223C220.03 45.8451 211.47 49.125 200.849 51.8866C179.614 57.4078 150.25 60.8284 117.797 60.8284C85.3433 60.8284 55.9797 57.4078 34.7443 51.8866C24.1229 49.125 15.5633 45.8451 9.67095 42.223C3.75043 38.5836 0.665039 34.6907 0.665039 30.7442C0.665039 26.7977 3.75043 22.9048 9.67095 19.2654C15.5633 15.6433 24.1229 12.3634 34.7443 9.60179C55.9797 4.0806 85.3433 0.659973 117.797 0.659973C150.25 0.659973 179.614 4.0806 200.849 9.60179C211.47 12.3634 220.03 15.6433 225.922 19.2654C231.843 22.9048 234.928 26.7977 234.928 30.7442Z" fill="white" stroke="#E76387"/>
<path d="M27.5508 29.6562L35.301 32.1254L35.0035 33.0592L27.2533 30.5899L27.5508 29.6562ZM26.6286 32.5508L34.3787 35.0201L34.0812 35.9538L26.3311 33.4845L26.6286 32.5508ZM25.6978 35.4721L33.4479 37.9414L33.1504 38.8751L25.4003 36.4058L25.6978 35.4721ZM27.814 26.4781L37.0181 29.4106L33.7074 39.8019L32.6669 39.4704L35.6717 30.0395L28.5218 27.7615L25.4958 37.2591L24.482 36.9361L27.814 26.4781ZM32.3089 25.8825L33.4227 26.399C32.8742 27.1059 32.2512 27.8624 31.775 28.3425L30.9365 27.8843C31.3763 27.3339 31.9673 26.4936 32.3089 25.8825Z" fill="#E76387"/>
<path d="M44.0293 34.8858L51.7947 36.8418L51.5451 37.8328L43.7797 35.8768L44.0293 34.8858ZM51.4553 36.7563L52.5143 37.023C52.5143 37.023 52.4118 37.3726 52.364 37.5049C51.1139 41.6656 50.5271 43.1925 49.9085 43.5853C49.5514 43.8563 49.2288 43.8761 48.7434 43.7971C48.2852 43.725 47.4333 43.496 46.5883 43.2398C46.6533 42.9242 46.6236 42.4691 46.5088 42.1226C47.3842 42.4297 48.2225 42.6553 48.5484 42.7374C48.8199 42.8058 48.9896 42.8197 49.163 42.7045C49.6219 42.4303 50.2154 40.9339 51.4075 36.9463L51.4553 36.7563ZM47.1134 30.4941L48.1073 31.0765C46.5519 33.1246 44.4404 34.7439 42.4015 35.6163C42.2662 35.3512 41.9309 34.8481 41.7209 34.593C43.7527 33.8632 45.7315 32.3693 47.1134 30.4941ZM51.8583 31.6603C52.2825 33.7018 53.514 36.2065 54.7305 37.6246C54.4042 37.7734 53.9215 38.0849 53.6461 38.3187C52.4469 36.7173 51.2903 34.0871 50.7816 31.8078L51.8583 31.6603ZM46.8254 35.8788L47.9115 36.1524C46.8504 39.0469 45.4366 41.6793 41.3069 42.0828C41.2497 41.7941 41.0536 41.3116 40.8775 41.0362C44.7319 40.751 45.9076 38.3763 46.8254 35.8788Z" fill="#E76387"/>
<path d="M66.964 36.8343C66.5172 38.2319 65.9405 39.7904 65.2383 41.183C63.8708 43.8468 62.4968 45.0994 61.2308 44.8624C59.9923 44.6305 59.0304 42.9976 59.458 40.7133C60.017 37.7272 63.1598 35.6236 66.5312 36.2547C69.7513 36.8575 71.3766 39.5119 70.8537 42.3054C70.3152 45.1815 68.0556 46.7525 64.7006 46.5659L64.2582 45.4291C64.7063 45.4703 65.1294 45.4925 65.4726 45.4855C67.3087 45.4162 69.2899 44.4198 69.7356 42.0391C70.1477 39.8374 68.9603 37.735 66.3182 37.2404C63.2908 36.6736 60.9393 38.8114 60.5606 40.8343C60.236 42.5681 60.8761 43.4856 61.4954 43.6015C62.1421 43.7226 63.0604 42.926 64.1976 40.7318C64.8414 39.4992 65.4214 37.9983 65.827 36.5929L66.964 36.8343Z" fill="#E76387"/>
<path d="M86.8845 38.8639L87.9682 38.9983L86.7294 48.9878C86.6364 49.7381 86.411 50.0769 85.8484 50.1764C85.2703 50.2881 84.296 50.1814 82.9206 50.0108C82.889 49.6966 82.7443 49.1567 82.6155 48.8303C83.734 49.0255 84.8611 49.1511 85.1963 49.1786C85.5037 49.2026 85.613 49.1174 85.6492 48.8256L86.8845 38.8639ZM78.3705 40.6296L79.3847 40.7554L78.6042 47.0491L77.59 46.9234L78.3705 40.6296ZM78.8012 40.683L84.0668 41.336L83.4242 46.5183L78.1585 45.8653L78.2826 44.865L82.5062 45.3887L82.9025 42.1932L78.6789 41.6694L78.8012 40.683ZM77.3236 37.3539L89.7167 38.8907L89.5858 39.9466L77.1927 38.4098L77.3236 37.3539Z" fill="#E76387"/>
<path d="M96.7888 38.4569L97.8632 38.7757C97.2885 39.9044 96.5481 41.2193 95.9347 42.0651L95.0568 41.7443C95.6431 40.8828 96.3904 39.4562 96.7888 38.4569ZM94.2583 41.2742C95.7281 41.3229 97.9559 41.3623 100.156 41.4L100.084 42.3354C97.9942 42.3325 95.8214 42.3105 94.2931 42.3003L94.2583 41.2742ZM94.9855 43.353L99.4151 43.6266L99.3599 44.5209L95.9084 44.3077L95.4786 51.2665L94.5005 51.206L94.9855 43.353ZM98.94 43.5973L99.974 43.6611L99.5623 50.3264C99.5295 50.8574 99.3996 51.1439 99.012 51.2883C98.6104 51.4318 97.9947 51.4078 97.1144 51.3535C97.0757 51.0705 96.9479 50.6418 96.8246 50.3677C97.4796 50.4362 98.0813 50.4594 98.2778 50.4575C98.4595 50.4687 98.518 50.4302 98.5292 50.2486L98.94 43.5973ZM95.3181 45.4635L99.3564 45.7129L99.3054 46.5374L95.2671 46.2879L95.3181 45.4635ZM95.1886 47.5595L99.2269 47.809L99.1751 48.6474L95.1368 48.3979L95.1886 47.5595ZM101.594 38.7817L102.628 38.8456L102.342 43.4708C102.315 43.9179 102.42 44.0226 103.063 44.0623C103.357 44.0805 104.88 44.1745 105.285 44.1996C105.83 44.2332 105.942 44.0017 106.084 42.6218C106.296 42.8173 106.706 42.9969 107.009 43.0857C106.778 44.7827 106.442 45.2248 105.31 45.1549C105.017 45.1368 103.186 45.0237 102.907 45.0065C101.565 44.9236 101.236 44.5807 101.307 43.4209L101.594 38.7817ZM105.806 40.0798L106.457 40.8915C105.235 41.3771 103.524 41.8185 102.06 42.1348C102.018 41.9078 101.897 41.5918 101.784 41.3744C103.195 41.0267 104.826 40.5102 105.806 40.0798ZM101.193 45.2793L102.227 45.3432L101.935 50.0662C101.906 50.5413 102.026 50.6329 102.697 50.6743C102.99 50.6924 104.569 50.79 104.988 50.8159C105.589 50.853 105.69 50.5927 105.857 49.018C106.084 49.2003 106.493 49.3939 106.783 49.4679C106.527 51.3457 106.188 51.8298 105.014 51.7573C104.707 51.7383 102.821 51.6218 102.527 51.6036C101.172 51.5199 100.828 51.1761 100.9 50.0163L101.193 45.2793ZM105.589 46.3223L106.239 47.148C105.024 47.7462 103.2 48.2086 101.666 48.5207C101.623 48.3076 101.49 47.9627 101.391 47.7462C102.87 47.4168 104.6 46.8785 105.589 46.3223ZM98.4535 39.8922L99.3414 39.5964C100.022 40.6203 100.725 41.9542 100.993 42.8404L100.045 43.1886C99.8045 42.3181 99.1328 40.9301 98.4535 39.8922Z" fill="#E76387"/>
<path d="M113.596 39.2186H114.66L114.66 52.0846H113.596L113.596 39.2186ZM112.308 41.8786L113.106 42.0046C113.036 43.1386 112.784 44.7626 112.406 45.7706L111.58 45.4906C111.958 44.5526 112.21 43.0126 112.308 41.8786ZM114.758 41.7946L115.486 41.4726C115.92 42.2286 116.354 43.2226 116.508 43.8246L115.724 44.2166C115.57 43.6006 115.15 42.5786 114.758 41.7946ZM117.614 39.8766L118.636 40.0446C118.272 42.0886 117.656 44.0766 116.872 45.3926C116.662 45.2386 116.186 45.0146 115.92 44.9026C116.746 43.6706 117.306 41.7666 117.614 39.8766ZM117.628 42.1866H124.138V43.1946L117.306 43.1946L117.628 42.1866ZM119.896 39.2746H120.946L120.946 51.1746H119.896L119.896 39.2746ZM116.914 46.1066L123.83 46.1066L123.83 47.1006L116.914 47.1006L116.914 46.1066ZM115.864 50.6006L124.474 50.6006V51.6086L115.864 51.6086V50.6006Z" fill="#E76387"/>
<path d="M135.032 41.0032C136.572 41.1747 139.405 40.9436 140.775 40.6485L140.845 41.7803C139.36 42.0404 136.65 42.2078 135.116 42.1342L135.032 41.0032ZM135.929 46.6707C135.835 47.1815 135.789 47.5771 135.812 47.9544C135.852 48.5971 136.338 49.1983 138.252 49.0801C139.496 49.0033 140.579 48.8242 141.68 48.4896L141.781 49.6617C140.926 49.8968 139.759 50.0811 138.306 50.1709C135.972 50.315 134.876 49.5972 134.795 48.2837C134.766 47.8226 134.805 47.3153 134.917 46.635L135.929 46.6707ZM132.311 40.0913C132.242 40.334 132.157 40.788 132.117 41.043C131.932 42.3589 131.652 44.873 131.75 46.452C131.791 47.1227 131.869 47.707 131.996 48.3865C132.194 47.743 132.464 46.8848 132.666 46.2972L133.281 46.722C132.993 47.7357 132.567 49.2349 132.483 49.9134C132.453 50.1116 132.441 50.3788 132.452 50.5465C132.474 50.6853 132.5 50.8801 132.524 51.033L131.536 51.1641C131.195 50.1893 130.858 48.597 130.741 46.6966C130.614 44.6425 130.928 42.2246 131.024 41.0545C131.046 40.7305 131.066 40.3785 131.061 40.0703L132.311 40.0913Z" fill="#E76387"/>
<path d="M147.113 45.2389C148.127 44.7745 149.639 43.9945 151.124 43.2319L151.408 44.156C150.058 44.8736 148.628 45.6293 147.53 46.2169L147.113 45.2389ZM146.725 40.6316L150.837 40.1216L150.958 41.0942L146.845 41.6041L146.725 40.6316ZM148.143 37.6202L149.116 37.4996L150.549 49.059C150.621 49.6425 150.517 49.9376 150.19 50.1474C149.891 50.3538 149.353 50.4488 148.478 50.5573C148.405 50.3124 148.227 49.8972 148.051 49.6227C148.664 49.5608 149.192 49.4953 149.357 49.4607C149.524 49.44 149.602 49.388 149.577 49.1796L148.143 37.6202ZM152.837 37.1368L153.81 37.0162L154.57 43.1433C154.914 45.922 154.804 48.221 152.099 50.066C151.918 49.8626 151.528 49.5583 151.283 49.4053C153.815 47.7512 153.904 45.7369 153.595 43.25L152.837 37.1368ZM155.241 36.8387L156.227 36.7164L157.58 47.6229C157.65 48.1925 157.732 48.2812 158.107 48.2346C158.274 48.214 159.121 48.1089 159.357 48.0796C159.691 48.0382 159.707 47.5989 159.554 46.0238C159.814 46.189 160.21 46.3092 160.51 46.3425C160.644 48.2163 160.475 48.9003 159.53 49.0174C159.308 49.045 158.294 49.1708 158.085 49.1966C157.085 49.3207 156.752 49.0234 156.592 47.7313L155.241 36.8387ZM150.782 39.4513L151.523 38.9362C152.26 39.7618 153.007 40.8965 153.329 41.6747L152.554 42.2505C152.244 41.4566 151.494 40.2942 150.782 39.4513ZM156.681 43.3329L157.243 42.6284C158.327 43.298 159.615 44.2387 160.283 44.8471L159.681 45.6835C159.025 45.0595 157.726 44.0215 156.681 43.3329ZM151.019 45.9112C151.7 45.3753 152.719 44.4872 153.71 43.6026L154.143 44.3671C153.326 45.1737 152.431 46.0324 151.696 46.702L151.019 45.9112ZM158.188 37.9686L159.192 38.3238C158.749 39.4226 158.206 40.7314 157.733 41.58L156.959 41.2528C157.401 40.3798 157.93 38.9599 158.188 37.9686Z" fill="#E76387"/>
<path d="M171.197 38.3875L176.79 36.614L177.089 37.5265L171.501 39.3276L171.197 38.3875ZM173.696 34.316L174.398 33.7288C175.19 34.307 176.07 35.1251 176.48 35.7178L175.747 36.3677C175.337 35.7751 174.475 34.8967 173.696 34.316ZM163.682 36.1338L164.484 35.6989C165.066 36.3019 165.671 37.1716 165.924 37.765L165.078 38.2653C164.852 37.6667 164.245 36.7833 163.682 36.1338ZM166.174 35.2969L167.03 34.923C167.488 35.6206 167.947 36.5461 168.101 37.1439L167.198 37.5693C167.041 36.9578 166.619 35.9971 166.174 35.2969ZM166.037 41.3333L166.274 42.5993L170.76 41.7595L170.523 40.4935L166.037 41.3333ZM165.658 39.3104L165.893 40.5627L170.379 39.7228L170.144 38.4706L165.658 39.3104ZM164.625 38.6634L170.9 37.4887L171.818 42.3876L165.543 43.5623L164.625 38.6634ZM165.285 44.8497L172.468 43.5049L172.641 44.4269L165.458 45.7716L165.285 44.8497ZM169.749 34.4568L170.857 34.5913C170.572 35.5845 170.207 36.7497 169.89 37.4927L169.008 37.3445C169.3 36.5491 169.626 35.3202 169.749 34.4568ZM167.368 38.4775L168.263 38.3101L169.041 42.4659L169.096 42.4556L170.026 47.4233L169.021 47.6114L168.091 42.6437L168.146 42.6334L167.368 38.4775ZM175.94 38.5393L176.823 38.844C176.395 41.958 174.848 45.1104 172.605 46.8977C172.366 46.6861 172.006 46.44 171.709 46.2963C174.022 44.6526 175.551 41.5604 175.94 38.5393ZM171.769 34.0643L172.746 33.8814C174.047 39.9905 175.863 44.9774 177.271 44.8135C177.563 44.7731 177.614 43.9802 177.471 42.6111C177.689 42.784 178.151 42.9681 178.334 43.0336C178.46 45.2318 178.067 45.9464 177.498 46.0245C175.127 46.3686 173.338 41.0773 171.769 34.0643Z" fill="#E76387"/>
<path d="M188.691 30.8265C188.705 30.9963 188.798 31.536 188.839 31.6989C189.021 32.5916 189.708 35.2049 189.995 36.2876L188.83 36.018C188.679 35.4207 187.985 32.7225 187.756 31.9861C187.637 31.6263 187.5 31.2565 187.442 31.1411L188.691 30.8265ZM181.948 34.5464C183.787 34.0542 187.15 33.0771 189.241 32.5505C190.897 32.1333 192.581 31.7092 193.222 31.5621L193.462 32.5701C192.691 32.7209 191.463 33.0015 189.467 33.5042C187.132 34.0924 184.251 34.9192 182.238 35.5849L181.948 34.5464ZM190.067 36.6881C190.525 38.5073 189.912 39.6289 188.677 39.9401C187.537 40.2273 186.235 39.7033 185.862 38.2236C185.524 36.8795 186.384 35.5945 187.674 35.2697C189.249 34.873 190.344 35.8388 190.737 37.4C191.202 39.2463 190.819 41.5084 187.905 43.2385L186.773 42.5852C189.097 41.379 190.232 39.8083 189.668 37.5683C189.36 36.3464 188.633 35.981 187.9 36.1657C187.18 36.3469 186.655 37.0711 186.877 37.9535C187.093 38.8088 187.854 39.1368 188.601 38.9487C189.442 38.7367 189.807 37.894 189.224 36.4961L190.067 36.6881Z" fill="#E76387"/>
<path d="M200.406 28.3373C200.708 28.2705 201.086 28.1648 201.352 28.0798C202.059 27.8546 205.191 26.7539 205.877 26.462C206.264 26.2945 206.442 26.2083 206.572 26.1082L207.437 26.6997C207.247 26.9363 207.036 27.1947 206.846 27.4755C206.354 28.1907 205.037 30.3294 204.269 31.5146C204.819 31.119 205.438 30.8483 206.038 30.6571C208.252 29.9516 210.26 30.7664 210.834 32.5672C211.518 34.7148 210.19 36.6807 207.363 37.5817C205.548 38.1597 204.19 37.7255 203.833 36.605C203.544 35.6979 204.108 34.6073 205.335 34.2163C207.109 33.6511 208.403 34.6202 208.925 35.9377L208.016 36.4038C207.574 35.2955 206.662 34.69 205.594 35.03C204.981 35.2255 204.633 35.7478 204.782 36.2147C204.99 36.8683 205.847 37.0214 206.901 36.6856C209.168 35.9631 210.298 34.5746 209.767 32.9072C209.346 31.5866 207.782 31.0123 206.035 31.5691C203.82 32.2746 202.917 33.5909 201.785 35.8471L200.765 35.32C201.583 34.0601 202.844 32.0712 203.397 31.1754C203.948 30.3237 205.183 28.3876 205.658 27.5748C204.964 27.8401 202.33 28.7968 201.649 29.0578C201.351 29.1823 201.062 29.2891 200.781 29.4226L200.406 28.3373Z" fill="#E76387"/>
</svg>
