<svg width="236" height="73" viewBox="0 0 236 73" fill="none" xmlns="http://www.w3.org/2000/svg">
<path d="M235.455 42.0368C235.455 45.9833 232.369 49.8763 226.449 53.5156C220.556 57.1377 211.997 60.4177 201.375 63.1792C180.14 68.7004 150.776 72.1211 118.323 72.1211C85.8697 72.1211 56.5061 68.7004 35.2707 63.1792C24.6493 60.4177 16.0897 57.1377 10.1973 53.5156C4.2768 49.8763 1.19141 45.9833 1.19141 42.0368C1.19141 38.0904 4.2768 34.1974 10.1973 30.5581C16.0897 26.936 24.6493 23.656 35.2707 20.8945C56.5061 15.3733 85.8697 11.9526 118.323 11.9526C150.776 11.9526 180.14 15.3733 201.375 20.8945C211.997 23.656 220.556 26.936 226.449 30.5581C232.369 34.1974 235.455 38.0904 235.455 42.0368Z" fill="#E76387" stroke="#E76387"/>
<path d="M235.455 30.7442C235.455 34.6907 232.369 38.5836 226.449 42.223C220.556 45.8451 211.997 49.125 201.375 51.8866C180.14 57.4078 150.776 60.8284 118.323 60.8284C85.8697 60.8284 56.5061 57.4078 35.2707 51.8866C24.6493 49.125 16.0897 45.8451 10.1973 42.223C4.2768 38.5836 1.19141 34.6907 1.19141 30.7442C1.19141 26.7977 4.2768 22.9048 10.1973 19.2654C16.0897 15.6433 24.6493 12.3634 35.2707 9.60179C56.5061 4.0806 85.8697 0.659973 118.323 0.659973C150.776 0.659973 180.14 4.0806 201.375 9.60179C211.997 12.3634 220.556 15.6433 226.449 19.2654C232.369 22.9048 235.455 26.7977 235.455 30.7442Z" fill="white" stroke="#E76387"/>
<path d="M26.2638 28.7222L29.5825 29.7889L29.2826 30.7219L25.9638 29.6551L26.2638 28.7222ZM29.1827 29.6604L30.1556 29.9732C30.1556 29.9732 30.0614 30.2664 30.0185 30.3997C28.9836 33.3905 28.5438 34.4843 28.1439 34.7676C27.8536 34.9389 27.6103 34.9637 27.2243 34.8837C26.8649 34.8123 26.2694 34.6062 25.6249 34.3696C25.6925 34.0678 25.7101 33.647 25.6449 33.3466C26.2275 33.5927 26.814 33.7812 27.0405 33.8541C27.2271 33.9141 27.3647 33.9436 27.4966 33.8536C27.7736 33.678 28.1616 32.6998 29.127 29.8337L29.1827 29.6604ZM34.3294 26.5502L35.1305 26.1166C35.8198 26.8087 36.6671 27.7869 37.0369 28.4205L36.192 28.8989C35.8355 28.2696 35.0277 27.26 34.3294 26.5502ZM35.0743 30.7748L35.9968 31.3361C33.7457 34.4506 30.9329 36.3846 27.6822 37.1191C27.5998 36.872 27.3594 36.3389 27.2104 36.0704C30.3788 35.5007 33.0421 33.6657 35.0743 30.7748ZM27.222 26.0156L37.5381 29.3316L37.2211 30.3179L26.905 27.0018L27.222 26.0156ZM26.5822 25.8099L27.6219 26.1441L26.4137 29.9027C25.8053 31.7953 24.7266 34.4191 22.9525 35.7752C22.8435 35.5196 22.5284 35.036 22.327 34.8389C23.9603 33.5551 24.8171 31.3012 25.3784 29.5552L26.5822 25.8099ZM32.8333 25.3487L33.8729 25.6829C31.8754 31.8054 31.575 37.2234 33.3077 37.7803C33.6809 37.9003 34.0769 37.2629 34.7267 35.5159C34.8805 35.8154 35.1808 36.1619 35.4174 36.3409C34.4982 38.5601 33.9151 39.0932 32.9021 38.7676C30.1831 37.8936 30.8344 31.7501 32.8333 25.3487Z" fill="#E76387"/>
<path d="M44.6963 29.0984L45.6719 29.3521L45.3089 30.7477L44.3334 30.494L44.6963 29.0984ZM41.7051 29.4198L48.1003 31.0832L47.91 31.8148L41.5148 30.1514L41.7051 29.4198ZM47.7648 32.0953L51.9921 33.1948L51.763 34.0755L47.5357 32.976L47.7648 32.0953ZM41.0955 33.5431L45.77 34.7589L45.5903 35.45L40.9158 34.2341L41.0955 33.5431ZM42.8712 31.7772L42.6351 32.685L45.6701 33.4744L45.9063 32.5666L42.8712 31.7772ZM42.1833 30.9184L46.9661 32.1624L46.4023 34.3303L41.6194 33.0863L42.1833 30.9184ZM45.5126 34.692L45.7158 34.7448L45.9161 34.7535L46.3317 35.3246C45.5404 35.6974 44.4616 35.952 43.5811 36.0557C43.5014 35.8614 43.341 35.5882 43.2337 35.4446C44.0088 35.3568 44.9516 35.1247 45.4703 34.8546L45.5126 34.692ZM43.0993 35.2939L44.0342 35.5371L43.4316 37.854C43.3153 38.3011 43.1676 38.4797 42.7836 38.51C42.3996 38.5403 41.8441 38.3958 41.004 38.1773C41.0268 37.9228 40.9653 37.6031 40.8998 37.3546C41.5567 37.5543 42.0715 37.6883 42.2512 37.7205C42.4173 37.7493 42.465 37.7327 42.5038 37.5837L43.0993 35.2939ZM40.1239 35.3879C41.6961 35.739 44.1225 36.2544 46.4812 36.7521L46.2808 37.4667C43.9964 37.0172 41.6242 36.5159 40.0043 36.1814L40.1239 35.3879ZM51.4908 33.0644L52.4257 33.3076C51.3101 37.4295 50.701 39.7158 51.2972 39.8709C51.5004 39.9238 51.7661 39.1249 52.0404 38.1258C52.1637 38.3748 52.3712 38.6892 52.5156 38.857C52.0185 40.4346 51.7084 40.9037 51.0039 40.7204C49.5541 40.3433 50.2291 37.9151 51.4908 33.0644ZM46.8266 34.7011L47.5041 34.154C48.4926 35.1922 49.6263 36.6733 50.0722 37.6283L49.3394 38.2767C48.9005 37.2946 47.8045 35.78 46.8266 34.7011ZM43.2602 39.4585L44.2162 39.6204C44.1985 40.4114 44.0909 41.3815 43.9564 41.9541L42.905 41.8253C43.06 41.2291 43.2154 40.2425 43.2602 39.4585ZM46.0448 40.1538L47.0355 40.2379C47.1875 41.0442 47.276 42.0943 47.2464 42.7086L46.1874 42.6646C46.2376 42.0267 46.1762 40.9836 46.0448 40.1538ZM48.8601 40.8427L49.9031 40.7813C50.3461 41.6921 50.837 42.9192 50.9995 43.6848L49.9017 43.7898C49.7528 43.0278 49.296 41.7806 48.8601 40.8427ZM41.0449 38.5206L41.94 39.0283C41.3245 39.8374 40.4404 40.6779 39.5943 41.0944L38.7617 40.4583C39.5665 40.089 40.4465 39.3197 41.0449 38.5206ZM49.8044 30.427L50.6851 30.6561L49.9027 33.664C49.3177 35.9132 48.321 38.2433 45.2032 39.3852C45.0935 39.1397 44.8659 38.7912 44.6778 38.5687C47.6249 37.527 48.5216 35.3589 49.022 33.4349L49.8044 30.427Z" fill="#E76387"/>
<path d="M60.7037 34.2316C60.5443 34.6708 60.4067 35.143 60.2884 35.5905C59.9225 37.1306 59.1602 40.3618 58.7501 42.4071C58.4473 43.917 59.2898 44.6286 60.5938 44.8901C63.1058 45.3939 64.8142 44.28 66.0888 43.0506L66.6703 44.1382C65.4754 45.2551 63.3468 46.613 60.3407 46.0102C58.364 45.6138 57.1675 44.5314 57.6189 42.2802C58.0264 40.2486 58.8601 36.8033 59.1491 35.362C59.251 34.8541 59.3061 34.3654 59.3036 33.9508L60.7037 34.2316Z" fill="#E76387"/>
<path d="M78.3423 37.3786C78.2158 37.6717 78.0438 38.1846 77.9509 38.4401C77.6009 39.4084 77.087 40.9332 76.5016 42.264C75.7225 44.1612 74.3856 46.8981 73.436 48.3043L72.2873 47.7308C73.3241 46.4077 74.6947 43.7321 75.4996 41.8527C76.0137 40.6249 76.6226 38.9298 76.8222 38.2229C76.9329 37.8427 77.0277 37.3754 77.0414 37.0804L78.3423 37.3786ZM74.9498 39.2574C76.4744 39.4744 78.5474 39.5148 80.3272 39.3298L80.1733 40.4109C78.3994 40.5544 76.273 40.4921 74.7761 40.2791C74.1662 40.1923 73.6831 40.1094 73.1762 39.9948L73.3023 38.9098C73.9419 39.0857 74.4369 39.1844 74.9498 39.2574ZM79.0594 41.7796C79.79 41.8129 80.7245 41.9034 81.6116 42.0297C82.4155 42.1441 83.257 42.2921 83.9937 42.4818L83.816 43.5313C83.1071 43.3455 82.3151 43.148 81.4973 43.0316C80.638 42.9093 79.7707 42.8424 78.9114 42.8191L79.0594 41.7796ZM78.8573 45.1871C78.6813 45.6287 78.537 46.0465 78.4857 46.4069C78.393 47.0583 78.6765 47.7492 80.6446 48.0293C81.5594 48.1595 82.5157 48.1966 83.3987 48.1526L83.1993 49.2555C82.4351 49.2598 81.4946 49.2108 80.4828 49.0668C78.3068 48.7571 77.2094 47.9222 77.4047 46.55C77.4797 46.0233 77.6378 45.5085 77.8454 44.9441L78.8573 45.1871Z" fill="#E76387"/>
<path d="M101.3 42.0631C101.148 42.2047 101.009 42.3474 100.915 42.4659C99.7226 44.0927 97.5888 46.3842 94.9679 47.9598L94.1695 47.1051C96.5331 45.7464 98.5247 43.6396 99.3767 42.3772C98.1212 42.2705 91.9694 41.7474 91.1743 41.6798C90.6163 41.6324 90.0129 41.6232 89.7455 41.6286L89.8511 40.3871C90.223 40.4749 90.7774 40.5642 91.2656 40.6057C91.9771 40.6662 98.1847 41.194 99.5796 41.3126C99.9563 41.3446 100.279 41.344 100.481 41.2909L101.3 42.0631ZM94.1666 48.1305C93.4008 47.2224 91.914 45.705 91.2197 45.112L92.1742 44.4625C92.7767 44.9774 94.2822 46.4402 95.2035 47.5021C96.0076 48.4557 96.9985 49.692 97.5366 50.4684L96.4495 51.1909C95.9939 50.4356 94.9823 49.1132 94.1666 48.1305Z" fill="#E76387"/>
<path d="M105.995 46.1798C108.434 45.6045 110.589 44.6711 112.17 43.7494C113.665 42.8673 115.099 41.7034 116.098 40.5551L117.01 41.4633C115.772 42.6748 114.269 43.8087 112.603 44.784C111.036 45.6921 108.782 46.6508 106.509 47.2868L105.995 46.1798ZM111.93 44.3168L113.143 43.987L112.963 50.3824C112.948 50.9002 112.956 51.6007 113.019 51.8686L111.633 51.8294C111.683 51.5647 111.744 50.8662 111.759 50.3484L111.93 44.3168Z" fill="#E76387"/>
<path d="M123.689 41.2363C124.687 41.8664 126.534 43.2707 127.325 44.0187L126.483 44.9388C125.749 44.2313 123.97 42.769 122.902 42.113L123.689 41.2363ZM122.751 50.6466C125.175 50.2139 126.971 49.3088 128.277 48.4455C130.407 47.0267 132.042 44.9077 132.805 43.1494L133.511 44.3339C132.608 46.0961 131.038 48.0453 128.963 49.4345C127.574 50.3561 125.836 51.2737 123.511 51.7736L122.751 50.6466Z" fill="#E76387"/>
<path d="M144.306 40.1148C144.697 40.5873 145.376 41.4709 145.754 42.1132L144.99 42.5435C144.578 41.8338 144.067 41.1046 143.553 40.516L144.306 40.1148ZM145.92 39.2749C146.338 39.7312 147.03 40.5996 147.407 41.228L146.659 41.685C146.233 40.9765 145.71 40.2763 145.198 39.7017L145.92 39.2749ZM140.173 49.5147C140.108 48.7474 139.584 42.5817 139.484 41.4099C139.45 41.0054 139.356 40.3951 139.249 39.9686L140.616 39.8524C140.61 40.2744 140.606 40.893 140.642 41.3114C140.827 43.4876 141.289 48.7594 141.345 49.415C141.383 49.8614 141.475 50.6123 141.57 51.0679L140.217 51.183C140.248 50.7306 140.218 50.0447 140.173 49.5147ZM140.578 43.5368C142.478 43.9092 145.374 44.7449 146.987 45.3805L146.599 46.5938C144.936 45.8781 142.243 45.1094 140.682 44.7644L140.578 43.5368Z" fill="#E76387"/>
<path d="M157.846 37.4002C157.798 37.9585 157.754 38.7425 157.526 39.7224C157.3 40.6172 156.919 41.6189 156.467 42.4185C156.963 42.0228 157.725 41.7163 158.335 41.6295C159.402 41.4776 160.325 41.9968 160.484 43.1195C160.587 43.8403 160.841 45.4303 160.978 46.2876L159.91 46.4395C159.861 45.697 159.672 44.2674 159.556 43.5487C159.427 42.7468 158.82 42.4514 158.099 42.554C157.212 42.6803 156.402 43.2481 155.845 43.9071C155.498 44.3524 155.181 44.9066 154.805 45.5399L153.748 44.9692C155.471 42.7724 156.171 41.0324 156.475 39.7872C156.671 38.9815 156.747 38.1223 156.696 37.4649L157.846 37.4002ZM153.305 39.5737C154.067 39.5642 155.03 39.4697 155.667 39.3789C157.538 39.1126 159.92 38.6605 161.825 38.0359L161.971 39.0615C160.072 39.6288 157.512 40.1204 155.752 40.3709C155.156 40.4557 154.237 40.5582 153.453 40.6132L153.305 39.5737ZM164.37 41.407C164.039 41.5672 163.568 41.8323 163.213 42.0241C162.284 42.5523 161.043 43.2663 159.797 44.1507C158.527 45.0667 157.663 45.9533 157.8 46.9096C157.953 47.9907 159.044 48.0052 160.472 47.802C161.553 47.6481 163.032 47.3103 164.22 46.915L164.339 48.0436C163.303 48.3183 161.78 48.6481 160.574 48.8197C158.606 49.0998 156.951 48.897 156.712 47.2199C156.472 45.5289 158.043 44.2448 159.572 43.1646C160.792 42.298 161.853 41.7086 162.707 41.1487C163.095 40.8955 163.42 40.6937 163.78 40.4445L164.37 41.407Z" fill="#E76387"/>
<path d="M171.569 40.3102L179.105 38.799L179.281 39.6775L172.775 40.9823L173.967 46.9259L172.937 47.1324L171.569 40.3102ZM178.762 38.8678L179.791 38.6613L180.936 44.3716C181.049 44.9344 180.964 45.2228 180.553 45.4481C180.155 45.6707 179.441 45.8139 178.329 46.0368C178.224 45.8008 178.002 45.4742 177.829 45.2518C178.63 45.1196 179.44 44.9572 179.657 44.8995C179.888 44.8389 179.945 44.7703 179.907 44.5781L178.762 38.8678ZM172.572 42.1081L179.573 40.7042L179.727 41.4729L172.726 42.8768L172.572 42.1081ZM168.709 36.229L180.788 33.8065L180.973 34.7262L168.893 37.1487L168.709 36.229ZM172.638 36.0265L173.829 36.1302C173.393 37.0887 172.814 38.19 172.348 38.926L171.461 38.7755C171.894 38.0175 172.385 36.8338 172.638 36.0265ZM176.641 36.1233L177.346 35.4392C178.725 35.9767 180.479 36.8241 181.4 37.4963L180.659 38.2875C179.78 37.607 178.055 36.6964 176.641 36.1233ZM169.794 38.7956C172.235 38.2919 176.131 37.425 179.779 36.6076L179.895 37.4697C176.337 38.3117 172.516 39.1923 170.028 39.7482L169.794 38.7956ZM172.941 43.9475L179.9 42.5518L180.052 43.3068L173.092 44.7024L172.941 43.9475ZM173.916 33.7854L174.973 33.5734L175.333 35.3716L174.276 35.5836L173.916 33.7854Z" fill="#E76387"/>
<path d="M184.504 33.6048C185.015 33.4573 185.442 33.3174 185.706 33.2198C186.562 32.8959 189.046 31.9895 191.496 31.1207C192.941 30.6147 194.18 30.2056 195.081 29.9424L195.376 31.0228C194.587 31.2137 193.415 31.5474 192.773 31.9168C190.998 33.044 190.358 35.4236 190.774 37.0224C191.461 39.6645 194.159 39.8596 196.379 39.3836L196.289 40.5933C193.744 41.1539 190.553 40.5662 189.764 37.5312C189.214 35.4175 190.053 33.362 191.11 32.3061C189.685 32.8357 186.332 34.0696 184.936 34.7654L184.504 33.6048Z" fill="#E76387"/>
<path d="M201.267 27.394C201.568 27.3264 201.946 27.2197 202.212 27.1341C202.919 26.907 206.048 25.7983 206.733 25.5046C207.12 25.3361 207.298 25.2494 207.427 25.149L208.293 25.7383C208.105 25.9754 207.894 26.2343 207.705 26.5156C207.214 27.232 205.903 29.3741 205.138 30.5613C205.686 30.1643 206.305 29.892 206.905 29.6992C209.117 28.988 211.127 29.7977 211.706 31.597C212.395 33.7429 211.073 35.7122 208.247 36.6205C206.434 37.2031 205.075 36.7724 204.715 35.6528C204.424 34.7464 204.985 33.6545 206.211 33.2603C207.984 32.6905 209.279 33.6563 209.805 34.9725L208.897 35.4409C208.453 34.3337 207.539 33.7306 206.472 34.0733C205.859 34.2704 205.513 34.7936 205.663 35.2601C205.873 35.9131 206.73 36.064 207.783 35.7256C210.049 34.9972 211.175 33.6058 210.639 31.9398C210.215 30.6203 208.65 30.05 206.904 30.6113C204.691 31.3225 203.791 32.641 202.665 34.9002L201.643 34.3757C202.458 33.1137 203.715 31.1216 204.265 30.2243C204.814 29.3713 206.043 27.432 206.517 26.618C205.823 26.8851 203.192 27.8485 202.512 28.1113C202.214 28.2365 201.925 28.3441 201.645 28.4783L201.267 27.394Z" fill="#E76387"/>
</svg>
