<svg width="142" height="139" viewBox="0 0 142 139" fill="none" xmlns="http://www.w3.org/2000/svg">
<g filter="url(#filter0_i_415_60)">
<path d="M141.902 82.5462C141.451 76.8725 138.134 71.8755 133.16 69.1765C129.502 67.1825 125.345 66.7327 121.268 67.0974C117.22 67.4662 113.368 69.0387 109.263 68.755C105.272 68.5037 101.362 67.3528 97.9606 65.2454C95.3474 63.6446 93.1528 61.5372 91.328 59.1502C91.1289 58.8989 90.9338 58.6152 90.7387 58.364C90.1738 57.6061 89.6414 56.7915 89.1618 55.9769C103.98 59.7135 121.24 60.5808 128.409 47.6041C133.778 39.6285 131.668 28.7876 123.686 23.4219C118.96 20.2487 113.002 19.7137 107.771 21.9062C103.951 23.507 100.997 26.4857 98.7491 29.9102C96.526 33.3104 95.3474 37.2982 92.5635 40.3013C89.8649 43.2516 86.5486 45.6102 82.7812 46.9598C78.6764 48.4187 74.3197 48.6457 70.0443 48.054C82.2203 38.8139 93.6608 25.8657 87.9548 12.188C85.0571 3.00057 75.2748 -2.08146 66.0817 0.812137C60.6562 2.52641 56.523 6.8506 54.9786 12.3014C53.8528 16.2892 54.3324 20.4432 55.5963 24.35C56.8603 28.196 59.25 31.6245 59.8962 35.6691C60.5139 39.6001 60.2904 43.6731 58.998 47.4664C57.5918 51.596 55.0355 55.134 51.9143 58.0843C52.28 42.8301 49.2726 25.8089 35.0197 21.736C26.0218 18.2832 15.9306 22.7492 12.472 31.738C10.4197 37.047 11.2366 42.972 14.5244 47.5798C16.9426 50.9476 20.4824 53.1685 24.3352 54.599C28.1311 56.0337 32.2927 56.2849 35.861 58.3072C39.348 60.2728 42.3839 63.0002 44.5501 66.368C45.562 67.9404 46.3464 69.5979 46.9357 71.3406C46.8829 72.0701 46.826 72.7712 46.826 73.5047C46.826 74.8502 46.9357 76.1713 47.1633 77.4641C35.6375 68.139 21.1042 60.7793 9.4646 69.067C1.11285 73.8978 -1.667 84.5401 3.19367 92.8562C6.06294 97.772 11.2081 100.832 16.8857 101.115C21.0189 101.338 24.9814 99.9321 28.4968 97.8288C31.9798 95.7497 34.7637 92.6576 38.588 91.1419C42.2986 89.6545 46.318 88.9778 50.313 89.3992C51.2681 89.5127 52.2231 89.6545 53.1497 89.8774C54.8364 91.7619 56.8034 93.3627 58.998 94.6515C45.054 97.9949 31.2808 104.767 30.5208 118.501C29.143 128.021 35.7472 136.84 45.2776 138.218C50.9023 139.032 56.523 136.925 60.2904 132.686C63.0459 129.565 64.4236 125.634 64.956 121.561C65.4925 117.545 64.8463 113.444 65.9964 109.513C67.1506 105.691 69.1176 102.125 71.93 99.2594C72.4055 98.7811 72.8851 98.3313 73.3931 97.9098C76.2298 97.6869 78.9284 96.9858 81.4035 95.8592C75.3601 108.811 72.1251 123.725 82.3585 132.852C88.9668 139.875 99.9846 140.211 107.015 133.61C111.145 129.707 113.002 124.033 112.047 118.445C111.344 114.372 109.092 110.834 106.256 107.855C103.443 104.933 99.8179 102.882 97.4851 99.5106C95.2052 96.228 93.6608 92.463 93.1528 88.5036C93.0146 87.377 92.9577 86.226 93.0146 85.1034C94.307 82.7448 95.2052 80.1308 95.6563 77.379C101.98 90.7488 111.876 103.669 125.962 101.282C135.521 100.524 142.69 92.1267 141.902 82.5462ZM71.3935 92.3496C60.8269 92.3496 52.2516 83.7822 52.2516 73.221C52.2516 62.6598 60.8269 54.0925 71.3935 54.0925C81.9643 54.0925 90.5396 62.6598 90.5396 73.221C90.5396 83.7822 81.9643 92.3496 71.3935 92.3496Z" fill="url(#paint0_linear_415_60)"/>
</g>
<defs>
<filter id="filter0_i_415_60" x="0.803223" y="0" width="141.158" height="142.39" filterUnits="userSpaceOnUse" color-interpolation-filters="sRGB">
<feFlood flood-opacity="0" result="BackgroundImageFix"/>
<feBlend mode="normal" in="SourceGraphic" in2="BackgroundImageFix" result="shape"/>
<feColorMatrix in="SourceAlpha" type="matrix" values="0 0 0 0 0 0 0 0 0 0 0 0 0 0 0 0 0 0 127 0" result="hardAlpha"/>
<feOffset dy="4"/>
<feGaussianBlur stdDeviation="2"/>
<feComposite in2="hardAlpha" operator="arithmetic" k2="-1" k3="1"/>
<feColorMatrix type="matrix" values="0 0 0 0 1 0 0 0 0 1 0 0 0 0 1 0 0 0 0.5 0"/>
<feBlend mode="normal" in2="shape" result="effect1_innerShadow_415_60"/>
</filter>
<linearGradient id="paint0_linear_415_60" x1="71.3822" y1="0" x2="71.3822" y2="138.39" gradientUnits="userSpaceOnUse">
<stop stop-color="#E76387"/>
<stop offset="1" stop-color="#FF8A7B"/>
</linearGradient>
</defs>
</svg>
