<svg width="236" height="73" viewBox="0 0 236 73" fill="none" xmlns="http://www.w3.org/2000/svg">
<path d="M235.191 42.0368C235.191 45.9833 232.106 49.8763 226.185 53.5156C220.293 57.1377 211.733 60.4177 201.112 63.1792C179.877 68.7004 150.513 72.1211 118.06 72.1211C85.6065 72.1211 56.2429 68.7004 35.0075 63.1792C24.3861 60.4177 15.8265 57.1377 9.93414 53.5156C4.01362 49.8763 0.928223 45.9833 0.928223 42.0368C0.928223 38.0904 4.01362 34.1974 9.93414 30.5581C15.8265 26.936 24.3861 23.656 35.0075 20.8945C56.2429 15.3733 85.6065 11.9526 118.06 11.9526C150.513 11.9526 179.877 15.3733 201.112 20.8945C211.733 23.656 220.293 26.936 226.185 30.5581C232.106 34.1974 235.191 38.0904 235.191 42.0368Z" fill="#E76387" stroke="#E76387"/>
<path d="M235.191 30.7442C235.191 34.6907 232.106 38.5836 226.185 42.223C220.293 45.8451 211.733 49.1251 201.112 51.8866C179.877 57.4078 150.513 60.8285 118.06 60.8285C85.6065 60.8285 56.2429 57.4078 35.0075 51.8866C24.3861 49.1251 15.8265 45.8451 9.93414 42.223C4.01362 38.5836 0.928223 34.6907 0.928223 30.7442C0.928223 26.7978 4.01362 22.9048 9.93414 19.2654C15.8265 15.6434 24.3861 12.3634 35.0075 9.60185C56.2429 4.08066 85.6065 0.660034 118.06 0.660034C150.513 0.660034 179.877 4.08066 201.112 9.60185C211.733 12.3634 220.293 15.6434 226.185 19.2654C232.106 22.9048 235.191 26.7978 235.191 30.7442Z" fill="white" stroke="#E76387"/>
<path d="M34.9405 25.6933L39.1424 27.032L38.8491 27.9525L35.6344 26.9282L33.1821 34.625L32.195 34.3105L34.9405 25.6933Z" fill="#E76387"/>
<path d="M43.8246 33.8083L47.205 34.6598L46.9657 35.6101L43.5852 34.7586L43.8246 33.8083ZM46.7978 34.5572L47.7888 34.8069C47.7888 34.8069 47.7136 35.1055 47.6794 35.2413C46.8387 38.2923 46.47 39.4122 46.0891 39.7205C45.8103 39.9102 45.5692 39.9505 45.1788 39.8955C44.8156 39.8473 44.2081 39.6798 43.5497 39.4851C43.5978 39.1796 43.5883 38.7586 43.504 38.463C44.1012 38.6712 44.6986 38.8216 44.9293 38.8798C45.1194 38.9277 45.2586 38.9483 45.3844 38.85C45.6496 38.657 45.9739 37.6559 46.7533 34.7337L46.7978 34.5572ZM51.7341 31.1229L52.5058 30.6388C53.238 31.2852 54.1464 32.207 54.5562 32.8155L53.7437 33.3472C53.3475 32.7421 52.4766 31.7864 51.7341 31.1229ZM52.7488 35.291L53.7054 35.7919C51.6589 39.0445 48.9761 41.1552 45.7793 42.0968C45.6813 41.8556 45.4071 41.339 45.2412 41.0806C48.3665 40.3086 50.9064 38.3064 52.7488 35.291ZM44.6071 31.0458L55.1149 33.6925L54.8618 34.6972L44.354 32.0504L44.6071 31.0458ZM43.9554 30.8816L45.0144 31.1484L44.05 34.9768C43.5645 36.9046 42.6565 39.5922 40.9731 41.0595C40.8479 40.8114 40.5024 40.349 40.2888 40.1652C41.8362 38.7792 42.5466 36.4749 42.9945 34.6965L43.9554 30.8816ZM50.164 30.02L51.2229 30.2867C49.6227 36.5248 49.6708 41.9509 51.4357 42.3955C51.8158 42.4912 52.1701 41.8297 52.7064 40.0447C52.879 40.3336 53.201 40.6601 53.4486 40.8235C52.6738 43.0972 52.1261 43.6666 51.0943 43.4067C48.3248 42.7091 48.5803 36.5366 50.164 30.02Z" fill="#E76387"/>
<path d="M59.1127 38.9836L71.4288 41.2893L71.2562 42.2113L58.9401 39.9056L59.1127 38.9836ZM62.8649 35.527L70.4058 36.9388L70.2487 37.7782L62.7077 36.3664L62.8649 35.527ZM62.4913 37.5224L70.0323 38.9341L69.8752 39.7735L62.3342 38.3618L62.4913 37.5224ZM58.8355 44.1163C60.4593 44.1923 63.0436 44.2346 65.4689 44.2898L65.3401 45.2058C63.0637 45.1927 60.6221 45.1486 58.9167 45.1285L58.8355 44.1163ZM65.2863 40.3957C65.7653 43.1631 67.6149 45.304 70.6777 46.5184C70.4189 46.6836 70.0527 47.0423 69.861 47.3055C66.6751 45.9115 64.8675 43.6218 64.3042 40.4683L65.2863 40.3957ZM69.7881 42.0646L70.5081 42.7834C69.3318 43.3608 67.8063 43.9013 66.6376 44.2095L66.0388 43.5277C67.1826 43.2006 68.8087 42.5792 69.7881 42.0646ZM62.6819 33.3848L71.2275 34.9846L71.0626 35.8653L63.5629 34.4613L62.5221 40.0207L61.4763 39.8249L62.6819 33.3848ZM61.4806 39.726L62.5402 39.9244L61.654 44.6581L60.5712 44.5836L61.4806 39.726Z" fill="#E76387"/>
<path d="M81.7918 39.4523C82.5734 39.6339 83.3185 39.7686 84.1382 39.8702C85.8054 40.077 87.5298 40.1638 88.9693 40.0461L88.8366 41.1159C87.3329 41.1834 85.6241 41.0843 83.9985 40.8827C83.1927 40.7828 82.4737 40.6654 81.6747 40.5099L81.7918 39.4523ZM86.9629 37.5684C86.8868 37.8411 86.8228 38.1294 86.7762 38.3916C86.6847 38.9022 86.5484 39.887 86.4468 40.7067C86.1815 42.8463 86.1211 45.0395 85.9436 46.4706C85.8024 47.6099 85.1366 48.6559 83.2609 48.4233C81.3992 48.1924 80.478 47.3164 80.6331 46.066C80.7778 44.8989 81.9196 44.1094 83.7536 44.3368C86.0877 44.6263 87.5668 46.0088 88.6029 47.2095L87.8918 48.0524C86.6018 46.5099 85.3157 45.3911 83.5512 45.1723C82.5092 45.0431 81.7299 45.412 81.6472 46.0789C81.5576 46.8013 82.1919 47.2609 83.2061 47.3867C84.3732 47.5314 84.779 46.9892 84.8944 46.0583C85.0184 45.058 85.16 42.4375 85.3874 40.6035C85.5063 39.6449 85.601 38.7679 85.6613 38.2816C85.6923 38.0315 85.7232 37.6685 85.7125 37.4133L86.9629 37.5684ZM80.1013 36.8162C79.9904 37.0282 79.8224 37.4729 79.7358 37.7161C79.2977 38.9737 78.5398 41.673 78.3468 43.2291C78.2624 43.9098 78.2317 44.4985 78.2445 45.1914C78.5461 44.5798 78.9985 43.7754 79.3054 43.2351L79.8199 43.7503C79.3519 44.6798 78.6621 46.0332 78.4388 46.6967C78.373 46.8861 78.3107 47.1605 78.3057 47.315C78.3023 47.4557 78.2904 47.6658 78.287 47.8065L77.2903 47.7675C77.1503 46.7345 77.0759 45.1734 77.3085 43.2978C77.5617 41.2554 78.3632 38.6603 78.6712 37.5417C78.7681 37.2152 78.8407 36.8574 78.8925 36.5535L80.1013 36.8162Z" fill="#E76387"/>
<path d="M94.1948 45.3116L106.603 46.0781L106.545 47.0143L94.137 46.2479L94.1948 45.3116ZM99.9098 44.304L100.972 44.3696L100.586 50.6157L99.524 50.5501L99.9098 44.304ZM99.3286 45.9934L100.171 46.4382C98.7947 48.0504 96.4247 49.4049 94.3389 50.0195C94.1876 49.7436 93.9052 49.3194 93.6806 49.0951C95.7595 48.5923 98.0913 47.4038 99.3286 45.9934ZM101.353 46.1465C102.394 47.6836 104.552 49.0793 106.64 49.7974C106.404 49.9792 106.058 50.3646 105.887 50.6346C103.806 49.8047 101.616 48.2387 100.447 46.5113L101.353 46.1465ZM99.0061 42.1302L98.9181 43.5555L102.118 43.7531L102.206 42.3278L99.0061 42.1302ZM99.1433 39.9084L99.0562 41.3197L102.256 41.5174L102.343 40.1061L99.1433 39.9084ZM98.217 39.0096L103.415 39.3307L103.085 44.6685L97.8873 44.3474L98.217 39.0096ZM100.429 37.7155L101.564 37.954C101.272 38.5952 100.98 39.2364 100.742 39.6846L99.846 39.4328C100.059 38.941 100.3 38.2125 100.429 37.7155ZM94.7638 38.8244L95.5276 38.2684C96.3716 38.9097 97.3111 39.8233 97.7168 40.5217L96.906 41.1589C96.5282 40.4623 95.6062 39.4936 94.7638 38.8244ZM103.232 42.7559L103.889 42.1092C104.945 42.7215 106.29 43.6601 106.95 44.3181L106.259 45.0609C105.626 44.4047 104.299 43.411 103.232 42.7559ZM105.932 38.7708L106.808 39.3579C106.017 40.1226 105.013 40.9442 104.221 41.4985L103.471 40.9192C104.248 40.378 105.315 39.462 105.932 38.7708ZM94.0276 43.4778C94.9067 43.0973 96.2231 42.4492 97.5099 41.8274L97.7499 42.7119C96.649 43.2751 95.4601 43.903 94.505 44.377L94.0276 43.4778Z" fill="#E76387"/>
<path d="M115.968 39.1068C115.898 39.5688 115.856 40.0588 115.828 40.5208C115.772 42.1028 115.66 45.4208 115.66 47.5068C115.66 49.0468 116.626 49.5788 117.956 49.5788C120.518 49.5788 121.974 48.1508 122.982 46.6948L123.766 47.6468C122.814 48.9768 120.994 50.7268 117.928 50.7268C115.912 50.7268 114.526 49.9008 114.526 47.6048C114.526 45.5328 114.666 41.9908 114.666 40.5208C114.666 40.0028 114.624 39.5128 114.54 39.1068H115.968Z" fill="#E76387"/>
<path d="M131.776 39.9304C131.726 40.2561 131.726 40.9295 131.734 41.2936C131.774 42.1608 131.867 43.4455 132.035 44.5853C132.417 46.9042 133.184 48.4138 134.19 48.3517C134.902 48.3076 135.47 46.8278 135.747 45.408L136.689 46.3458C135.982 48.7599 135.194 49.6222 134.244 49.6808C132.916 49.7628 131.578 48.527 130.963 44.9321C130.763 43.7381 130.63 42.0351 130.58 41.2247C130.56 40.9033 130.523 40.3024 130.419 39.9862L131.776 39.9304ZM139.065 39.8589C140.423 41.4021 141.613 44.3163 141.969 46.6649L140.864 47.1819C140.471 44.6814 139.441 41.8555 138.013 40.3027L139.065 39.8589Z" fill="#E76387"/>
<path d="M152.269 49.1926L147.892 49.7353L147.773 48.7766L151.122 48.3614L150.128 40.3448L151.156 40.2173L152.269 49.1926Z" fill="#E76387"/>
<path d="M169.465 34.1717C169.441 34.7316 169.432 35.5167 169.247 36.5057C169.06 37.4095 168.723 38.4268 168.307 39.2454C168.784 38.8285 169.532 38.489 170.138 38.3756C171.197 38.1773 172.142 38.6557 172.35 39.7703C172.484 40.4859 172.808 42.0633 172.981 42.9139L171.922 43.1122C171.84 42.3726 171.589 40.9526 171.441 40.2396C171.278 39.4441 170.658 39.1756 169.942 39.3095C169.062 39.4744 168.277 40.0771 167.75 40.7598C167.423 41.2198 167.13 41.7873 166.782 42.4365L165.701 41.9125C167.327 39.6425 167.95 37.8736 168.199 36.6163C168.36 35.8028 168.398 34.9411 168.318 34.2866L169.465 34.1717ZM165.023 36.5415C165.784 36.4987 166.741 36.3622 167.374 36.2437C169.232 35.8959 171.592 35.3402 173.468 34.6329L173.659 35.6512C171.786 36.3009 169.25 36.9039 167.502 37.2311C166.91 37.3418 165.997 37.4843 165.216 37.5736L165.023 36.5415ZM176.157 37.8897C175.834 38.0642 175.374 38.3496 175.029 38.5568C174.124 39.125 172.914 39.8926 171.708 40.8305C170.48 41.8012 169.656 42.7246 169.834 43.6741C170.035 44.7474 171.125 44.7142 172.542 44.4489C173.616 44.2479 175.079 43.8458 176.249 43.399L176.416 44.5213C175.393 44.841 173.886 45.237 172.689 45.4611C170.735 45.8269 169.073 45.6966 168.761 44.0315C168.447 42.3527 169.96 41.0012 171.44 39.8552C172.621 38.9362 173.656 38.3009 174.485 37.7043C174.861 37.4344 175.177 37.2186 175.526 36.9538L176.157 37.8897Z" fill="#E76387"/>
<path d="M190.396 39.4372L194.415 38.425L194.657 39.3889L190.639 40.4011L190.396 39.4372ZM187.739 30.6646L192.626 29.4335L195.341 40.2128L194.323 40.4693L191.851 30.6539L188.959 31.3822L191.469 41.347L190.492 41.5932L187.739 30.6646ZM184.001 32.79L185.033 32.5301L185.72 35.2589C186.301 37.5668 186.626 40.8055 184.322 43.5226C184.132 43.3396 183.666 43.0382 183.411 42.9436C185.583 40.3897 185.215 37.6095 184.685 35.5052L184.001 32.79ZM182.486 32.6806L187.061 31.5282L187.301 32.4785L182.726 33.6309L182.486 32.6806ZM181.994 36.6882L188.389 35.0776L188.635 36.055L182.24 37.6657L181.994 36.6882ZM185.962 37.5945C186.611 37.9363 188.997 39.5586 189.562 39.965L189.085 40.9947C188.306 40.3102 186.276 38.8435 185.484 38.3356L185.962 37.5945ZM182.147 30.8171L183.186 30.7575C183.25 32.6759 183.04 34.5913 182.529 35.947C182.312 35.8286 181.806 35.6529 181.541 35.5753C182.092 34.3248 182.238 32.5554 182.147 30.8171Z" fill="#E76387"/>
<path d="M200.405 27.3729C200.707 27.306 201.084 27.2004 201.351 27.1154C202.058 26.8901 205.19 25.7895 205.876 25.4975C206.263 25.33 206.441 25.2438 206.571 25.1437L207.435 25.7353C207.246 25.9718 207.035 26.2302 206.845 26.5111C206.353 27.2262 205.036 29.3649 204.268 30.5501C204.817 30.1546 205.436 29.8839 206.037 29.6926C208.251 28.9871 210.259 29.8019 210.833 31.6027C211.517 33.7504 210.189 35.7163 207.361 36.6173C205.547 37.1953 204.189 36.761 203.832 35.6405C203.543 34.7334 204.107 33.6429 205.334 33.2519C207.108 32.6866 208.401 33.6558 208.924 34.9733L208.015 35.4394C207.573 34.331 206.66 33.7256 205.593 34.0656C204.98 34.2611 204.632 34.7833 204.781 35.2502C204.989 35.9038 205.846 36.0569 206.9 35.7212C209.167 34.9987 210.297 33.6102 209.766 31.9427C209.345 30.6222 207.781 30.0479 206.033 30.6046C203.819 31.3101 202.916 32.6264 201.784 34.8827L200.763 34.3555C201.582 33.0957 202.843 31.1068 203.395 30.2109C203.947 29.3593 205.181 27.4232 205.657 26.6104C204.963 26.8757 202.329 27.8324 201.648 28.0934C201.35 28.2178 201.061 28.3247 200.78 28.4582L200.405 27.3729Z" fill="#E76387"/>
</svg>
