<svg width="97" height="96" viewBox="0 0 97 96" fill="none" xmlns="http://www.w3.org/2000/svg">
<path d="M36.8354 45.2078V40.5021L48.6341 21.9141H52.6912V28.4275H50.29L42.8521 40.1985V40.4193H59.6186V45.2078H36.8354ZM50.4004 50.1756V43.7726L50.5108 41.6889V21.9141H56.1135V50.1756H50.4004Z" fill="#828282"/>
<path d="M72.7832 64.9597C72.7341 64.4649 72.5235 64.0806 72.1515 63.8067C71.7794 63.5327 71.2744 63.3957 70.6366 63.3957C70.2032 63.3957 69.8372 63.4571 69.5387 63.5797C69.2403 63.6983 69.0113 63.8639 68.8518 64.0765C68.6964 64.2891 68.6188 64.5304 68.6188 64.8002C68.6106 65.0251 68.6576 65.2214 68.7598 65.389C68.8661 65.5566 69.0113 65.7018 69.1953 65.8245C69.3793 65.943 69.5919 66.0473 69.8331 66.1373C70.0744 66.2231 70.332 66.2967 70.6059 66.358L71.7344 66.6279C72.2823 66.7506 72.7852 66.9141 73.2432 67.1186C73.7011 67.323 74.0977 67.5745 74.433 67.8729C74.7683 68.1714 75.0279 68.523 75.2119 68.9278C75.4 69.3326 75.4961 69.7967 75.5001 70.3201C75.4961 71.0887 75.2998 71.7552 74.9114 72.3195C74.527 72.8796 73.971 73.3151 73.2432 73.6258C72.5194 73.9325 71.6465 74.0858 70.6243 74.0858C69.6103 74.0858 68.7271 73.9304 67.9748 73.6197C67.2265 73.3089 66.6418 72.849 66.2207 72.2397C65.8036 71.6264 65.5849 70.868 65.5645 69.9643H68.1342C68.1629 70.3855 68.2835 70.7371 68.4961 71.0192C68.7128 71.2973 69.0011 71.5078 69.3609 71.6509C69.7248 71.79 70.1357 71.8595 70.5936 71.8595C71.0434 71.8595 71.4339 71.7941 71.7651 71.6632C72.1003 71.5324 72.36 71.3504 72.544 71.1174C72.728 70.8843 72.82 70.6165 72.82 70.3139C72.82 70.0318 72.7361 69.7947 72.5685 69.6025C72.405 69.4103 72.1637 69.2468 71.8448 69.1118C71.53 68.9769 71.1436 68.8542 70.6856 68.7438L69.3179 68.4004C68.2589 68.1428 67.4228 67.74 66.8095 67.1922C66.1962 66.6443 65.8916 65.9062 65.8956 64.9781C65.8916 64.2176 66.0939 63.5532 66.5028 62.9848C66.9158 62.4165 67.4821 61.9728 68.2017 61.6539C68.9213 61.335 69.7391 61.1755 70.655 61.1755C71.5872 61.1755 72.4009 61.335 73.096 61.6539C73.7951 61.9728 74.3389 62.4165 74.7274 62.9848C75.1158 63.5532 75.3162 64.2114 75.3284 64.9597H72.7832Z" fill="#828282"/>
<path d="M54.7871 73.9081V61.3474H59.7427C60.6954 61.3474 61.507 61.5294 62.1776 61.8933C62.8481 62.2531 63.3592 62.7539 63.7108 63.3959C64.0666 64.0337 64.2444 64.7697 64.2444 65.6038C64.2444 66.4379 64.0645 67.1739 63.7047 67.8117C63.3449 68.4496 62.8236 68.9464 62.1408 69.3021C61.462 69.6578 60.6402 69.8357 59.6752 69.8357H56.5167V67.7075H59.2459C59.757 67.7075 60.1781 67.6196 60.5093 67.4438C60.8446 67.2639 61.094 67.0165 61.2576 66.7016C61.4252 66.3827 61.509 66.0168 61.509 65.6038C61.509 65.1868 61.4252 64.8229 61.2576 64.5121C61.094 64.1973 60.8446 63.954 60.5093 63.7823C60.1741 63.6065 59.7488 63.5185 59.2336 63.5185H57.4428V73.9081H54.7871Z" fill="#828282"/>
<path d="M44.2119 73.9081V61.3474H52.6757V63.5369H46.8676V66.5299H52.2402V68.7195H46.8676V71.7186H52.7002V73.9081H44.2119Z" fill="#828282"/>
<path d="M32.1968 63.5369V61.3474H42.5127V63.5369H38.6672V73.9081H36.0423V63.5369H32.1968Z" fill="#828282"/>
<path d="M28.1723 64.9597C28.1233 64.4649 27.9127 64.0806 27.5406 63.8067C27.1685 63.5327 26.6636 63.3957 26.0257 63.3957C25.5923 63.3957 25.2264 63.4571 24.9279 63.5797C24.6294 63.6983 24.4004 63.8639 24.241 64.0765C24.0856 64.2891 24.0079 64.5304 24.0079 64.8002C23.9997 65.0251 24.0468 65.2214 24.149 65.389C24.2553 65.5566 24.4004 65.7018 24.5844 65.8245C24.7684 65.943 24.981 66.0473 25.2223 66.1373C25.4635 66.2231 25.7211 66.2967 25.9951 66.358L27.1236 66.6279C27.6715 66.7506 28.1744 66.9141 28.6323 67.1186C29.0903 67.323 29.4869 67.5745 29.8221 67.8729C30.1574 68.1714 30.4171 68.523 30.6011 68.9278C30.7891 69.3326 30.8852 69.7967 30.8893 70.3201C30.8852 71.0887 30.689 71.7552 30.3005 72.3195C29.9162 72.8796 29.3601 73.3151 28.6323 73.6258C27.9086 73.9325 27.0356 74.0858 26.0135 74.0858C24.9994 74.0858 24.1163 73.9304 23.3639 73.6197C22.6157 73.3089 22.031 72.849 21.6099 72.2397C21.1928 71.6264 20.9741 70.868 20.9536 69.9643H23.5234C23.552 70.3855 23.6726 70.7371 23.8853 71.0192C24.102 71.2973 24.3902 71.5078 24.75 71.6509C25.1139 71.79 25.5249 71.8595 25.9828 71.8595C26.4326 71.8595 26.823 71.7941 27.1542 71.6632C27.4895 71.5324 27.7491 71.3504 27.9331 71.1174C28.1171 70.8843 28.2091 70.6165 28.2091 70.3139C28.2091 70.0318 28.1253 69.7947 27.9577 69.6025C27.7941 69.4103 27.5529 69.2468 27.234 69.1118C26.9191 68.9769 26.5327 68.8542 26.0748 68.7438L24.7071 68.4004C23.6481 68.1428 22.812 67.74 22.1986 67.1922C21.5853 66.6443 21.2807 65.9062 21.2848 64.9781C21.2807 64.2176 21.4831 63.5532 21.892 62.9848C22.3049 62.4165 22.8712 61.9728 23.5909 61.6539C24.3105 61.335 25.1282 61.1755 26.0441 61.1755C26.9764 61.1755 27.79 61.335 28.4851 61.6539C29.1843 61.9728 29.7281 62.4165 30.1165 62.9848C30.505 63.5532 30.7053 64.2114 30.7176 64.9597H28.1723Z" fill="#828282"/>
</svg>
