<svg width="97" height="96" viewBox="0 0 97 96" fill="none" xmlns="http://www.w3.org/2000/svg">
<path d="M15.2085 57.5853V54.5024H19.3535V42.3782H15.8562V40.0207C17.7991 39.6581 19.0945 39.1658 20.338 38.4146H23.1618V54.5024H26.7628V57.5853H15.2085Z" fill="#828282"/>
<path d="M28.944 57.7539V55.5777C34.1771 50.8887 37.2341 47.2877 37.2341 44.3343C37.2341 42.4173 36.2237 41.2256 34.3844 41.2256C32.9595 41.2256 31.8456 42.1323 30.8611 43.2204L28.7627 41.1479C30.5243 39.2567 32.2601 38.2463 34.8766 38.2463C38.4776 38.2463 40.9128 40.552 40.9128 44.1271C40.9128 47.6245 38.0113 51.355 34.5139 54.7746C35.4725 54.671 36.7419 54.5415 37.6486 54.5415H41.7936V57.7539H28.944Z" fill="#828282"/>
<path d="M50.296 57.9352C46.3841 57.9352 43.7935 54.5414 43.7935 47.9094C43.7935 41.3032 46.3841 38.0649 50.296 38.0649C54.1819 38.0649 56.7726 41.3032 56.7726 47.9094C56.7726 54.5414 54.1819 57.9352 50.296 57.9352ZM50.296 54.9559C51.954 54.9559 53.1716 53.2979 53.1716 47.9094C53.1716 42.5468 51.954 40.9924 50.296 40.9924C48.638 40.9924 47.3944 42.5468 47.3944 47.9094C47.3944 53.2979 48.638 54.9559 50.296 54.9559Z" fill="#828282"/>
<path d="M63.1425 45.3521H75.9899V48.1305H63.1425V45.3521ZM75.0638 45.3521H78.0559C78.0559 45.3521 78.0322 46.2307 78.0085 46.5869C77.7472 53.8062 77.4623 56.6322 76.6311 57.6058C76.0374 58.4132 75.3725 58.6269 74.4701 58.7694C73.6389 58.8882 72.2615 58.8644 70.8604 58.8169C70.8129 57.9858 70.433 56.7509 69.9105 55.9435C71.2404 56.0622 72.4753 56.086 73.069 56.086C73.4964 56.086 73.7576 56.0147 74.0189 55.7535C74.5888 55.1361 74.85 52.4763 75.0638 45.8745V45.3521ZM65.826 36.9454L68.9131 37.8479C67.1321 41.9799 64.2349 45.8033 61.2427 48.1543C60.6965 47.5368 59.4616 46.397 58.7729 45.8508C61.7651 43.8797 64.4011 40.5551 65.826 36.9454ZM74.8738 36.8979C76.3699 39.9139 79.3621 43.381 81.9743 45.3758C81.1906 45.9933 80.0982 47.1569 79.552 47.9643C76.8686 45.4946 73.9476 41.6475 72.0716 38.0141L74.8738 36.8979ZM67.3933 46.1595H70.4805C70.0293 51.5027 69.0081 56.4659 61.9314 59.1019C61.5752 58.3182 60.744 57.1071 60.0791 56.4897C66.4434 54.3999 67.0133 50.3866 67.3933 46.1595Z" fill="#828282"/>
</svg>
